<svg preserveAspectRatio="none" width="100%" height="100%" overflow="visible" style="display: block;" viewBox="0 0 189.625 23.7441" fill="none" xmlns="http://www.w3.org/2000/svg">
<path id="Vector 3" d="M1.97016 10.4057C3.45314 9.8323 5.44894 9.33501 7.01736 9.01507C7.51235 8.91312 7.33928 9.21877 7.67932 9.16002C8.34854 9.04333 8.90036 8.74312 9.57339 8.64217C9.79353 8.61086 9.65084 9.05391 9.87762 9.01328C11.1322 8.78381 12.2357 8.32413 13.4832 8.00152C19.6048 6.4192 25.5516 4.58824 31.6742 2.71669C32.9339 2.33134 34.3958 1.9952 35.8103 1.59154C36.314 1.4469 36.657 1.33854 37.2691 1.1807C37.3438 1.16324 37.407 1.14548 37.5882 1.11314C37.6711 1.0992 37.7632 1.08503 37.8972 1.07604C38.0076 1.08007 37.8827 1.04094 38.4328 1.09991C38.6715 1.15002 39.0726 1.19138 39.6294 1.67748C40.2224 2.14513 40.4854 3.29181 40.3072 3.83175C40.1459 4.47254 39.9311 4.67068 39.8058 4.83714C39.6725 4.99162 39.5808 5.06979 39.5038 5.13547C39.4186 5.20616 39.3871 5.22818 39.3612 5.24797C39.3333 5.26875 39.3072 5.28756 39.2823 5.30519C39.185 5.37387 39.0911 5.43346 39.0182 5.47895C38.9057 5.54997 38.7865 5.6215 38.6704 5.69048C38.5772 5.747 38.4797 5.80569 38.3775 5.8672C38.1299 6.01629 38.4374 6.22998 38.4021 6.27918C37.8577 7.02694 37.8267 6.29032 37.3086 6.44889C35.3617 7.01528 33.3762 7.9223 31.7437 8.86676C31.0501 9.26925 32.06 9.50641 31.1755 9.53029C31.1144 9.53264 31.1399 9.12713 30.927 9.19053C30.4449 9.33404 29.6309 9.81284 29.2783 9.96214C28.5953 10.2492 28.4976 10.3034 27.8762 10.6273C27.0425 11.0619 25.9656 11.4499 25.2662 12.0209C25.1333 12.1355 25.5122 12.3094 25.3514 12.5002C25.3038 12.5557 25.2332 12.6235 25.2043 12.6542C25.1852 12.6729 25.1835 12.6783 25.215 12.6421C25.2303 12.6133 25.3686 12.5043 25.5218 12.0844C25.5018 12.1118 25.5071 11.9845 25.4565 11.8634C25.3352 11.6093 25.0705 11.799 25.0019 11.7767C24.7051 11.7178 24.6634 11.6527 24.7938 11.5901C24.9183 11.525 25.1418 11.3988 25.1832 11.4011C26.8025 11.5129 29.187 11.744 31.4264 11.5125C33.1741 11.3191 35.0342 10.8913 36.7196 10.6247C38.7194 10.3084 40.4416 10.1781 42.3823 9.75361C42.5858 9.70933 42.2626 9.34158 42.5108 9.28658C45.1559 8.70007 47.8009 8.17012 50.5091 7.85421C50.7807 7.82285 50.5208 8.26348 50.7972 8.25384C52.49 8.18714 55.2214 8.31179 55.824 6.50548C56.9333 6.31305 58.2845 6.06479 59.3472 6.15252C60.0313 6.20897 59.5077 6.74816 60.2457 6.39796C60.4115 6.31961 60.1038 6.02631 60.3583 5.93507C61.4449 5.5478 62.6877 5.377 63.7414 4.94546C63.9535 4.85733 63.8215 4.56081 63.8711 4.49051C64.3151 3.91123 65.3701 4.45819 65.5693 4.47033C66.1798 4.49381 66.6999 4.45302 67.1794 4.37896C68.0049 4.24911 68.755 4.03932 69.6384 3.89017C69.9687 3.83525 69.5046 3.48134 69.8216 3.41352C71.4702 3.06937 73.2014 2.8764 74.8667 2.91701C75.2344 2.92803 74.9315 3.32056 75.1086 3.34461C75.8869 3.45005 76.0114 2.75064 76.7731 2.86054C76.9322 2.88374 76.8577 3.1996 76.888 3.23253C77.3559 3.74994 77.7245 2.98178 77.8501 2.96371C78.9093 2.82884 79.5684 3.04978 80.8035 3.64464C81.1934 3.90122 81.5011 4.101 81.9792 4.31888C82.1594 4.40377 81.9572 3.83373 82.4576 4.10243C82.8352 4.31175 83.3065 4.61565 83.7213 5.03553C84.1538 5.47685 84.6537 6.16827 84.6885 7.15566C84.5815 9.18777 83.4189 9.78421 82.7167 10.3662C81.1721 11.4156 79.642 11.9369 78.1506 12.3945C77.6852 12.5319 77.893 12.1268 77.8508 12.1046C77.1793 11.7606 77.1785 12.5811 77.0397 12.666C75.966 13.3037 74.6824 13.0767 74.2068 14.2099C72.859 14.5915 71.5407 15.0079 70.2576 15.4582C69.6057 15.6881 68.9959 15.9132 68.3938 16.1647C68.0976 16.2893 67.8255 16.4112 67.5858 16.5389C67.4871 16.5904 67.3686 16.6643 67.3474 16.681C67.3326 16.6903 67.3449 16.6885 67.4076 16.6131C67.4269 16.5879 67.6994 16.2699 67.6489 15.7403C67.5427 16.8049 69.5137 17.6894 71.6778 18.2208C71.7404 18.2361 71.5922 18.6012 71.7174 18.6298C73.1649 18.946 72.9658 18.3302 73.9131 17.6261C74.1507 17.4485 74.9343 18.2966 74.9987 18.3563C75.2494 18.5818 75.0158 19.1509 75.0992 19.1933C75.8032 19.5214 75.623 17.6756 76.5247 17.6184C76.553 17.6196 76.4579 17.9681 76.5355 17.997C76.7778 18.0876 77.0039 17.9348 77.2487 18.0331C77.8092 18.2595 78.1033 19.14 78.8708 18.5335C78.9694 18.4539 78.6953 17.4282 79.5283 17.3838C79.8698 17.3684 81.2906 17.1677 81.7236 17.1725C82.1361 17.1828 81.9074 17.5577 81.9383 17.5681C83.0909 17.8541 82.7068 18.097 83.3621 18.6693C84.0241 19.2359 83.6253 17.7012 83.8246 17.4915C84.0191 17.2835 84.8789 17.5173 85.101 17.6096C85.3212 17.7029 85.1089 17.9573 85.2982 17.9991C86.5581 18.2658 85.6845 17.1383 86.0236 16.8254C86.8134 16.0846 87.7382 17.1035 88.5851 17.0597C88.8147 17.0475 88.5822 16.8206 88.7768 16.7581C89.547 16.5136 90.0984 16.7776 90.9284 16.2698C91.065 16.187 91.6491 15.3512 92.2224 15.7597C92.3039 15.8188 92.1737 16.1434 92.5234 16.1378C93.0459 16.13 93.9645 16.0021 94.4831 15.7917C94.8677 15.6359 94.3096 15.264 94.8431 15.3025C95.0802 15.3198 94.7255 15.6833 95.1662 15.6927C95.6065 15.7025 96.6609 15.4609 97.0695 15.3611C97.4731 15.2625 97.1729 14.9553 97.2004 14.9242C97.3691 14.7434 98.1047 14.4012 98.1723 14.3866C101.608 13.5823 104.956 13.4406 108.273 12.527C108.543 12.454 108.281 12.1167 108.322 12.1016C109.216 11.7492 108.699 12.9012 109.404 13.1036C109.16 12.3582 109.54 12.4224 110.179 12.2065C110.488 12.1019 110.256 11.8406 110.279 11.8044C110.659 11.2609 111.086 11.7822 111.189 11.8858C111.554 12.2693 111.826 11.6827 112.084 11.9386C112.344 12.192 111.949 12.7085 112.56 12.593C112.682 12.288 112.101 11.6501 112.544 11.4517C113.479 11.052 114.843 10.8606 116.278 10.8958C116.664 10.9247 116.974 10.872 117.631 11.1963C117.781 11.2802 118.012 11.4594 118.148 11.7065C118.299 11.9678 118.327 12.2615 118.306 12.4598C118.253 12.8656 118.126 13.037 118.021 13.2121C117.608 13.7962 117.248 14.0593 116.991 14.3163C115.886 15.3315 115.573 15.6453 114.903 16.1477C113.72 17.0439 114.456 17.0742 114.121 17.8307C113.935 18.4947 113.011 17.5317 112.693 17.4869C112.372 17.4787 112.564 17.7376 112.374 17.8885C112.202 18.076 112.095 17.6246 111.971 17.9828C111.932 18.3845 112.24 18.6547 112.642 18.6208C112.668 18.627 112.701 18.631 112.743 18.6325C113.128 18.6477 114.124 18.015 114.226 17.7004C114.438 17.0353 113.889 16.4336 114.929 16.5392C114.989 16.5456 114.845 16.9166 115.071 16.9238C116.877 16.9677 118.746 16.731 120.54 16.7163C120.79 16.7145 120.626 17.1312 120.772 17.1345C122.299 17.1668 121.669 16.5935 122.371 15.7538C122.332 16.7406 122.86 17.2646 123.994 17.1007C124.674 17.0024 124.489 16.6013 124.88 16.2398C124.997 16.131 125.518 16.346 125.575 16.1356C125.762 15.4472 125.198 14.7962 126.405 14.9038C126.458 14.9095 126.35 15.2873 126.53 15.2813C127.677 15.2459 127.707 14.5512 128.922 14.2744C129.86 14.0599 131.643 14.1924 132.738 14.0802C132.892 15.1612 133.885 14.744 134.181 13.9316C134.891 13.8448 135.648 13.6747 136.351 13.6615C136.593 13.6566 136.491 13.9944 136.526 14.0231C137.073 14.4739 137.256 13.7003 137.404 13.646C139.012 13.0898 140.455 13.4044 141.943 12.5955C141.996 12.5665 141.956 11.8039 142.473 12.2758C142.507 12.3086 142.045 12.7393 142.792 12.6361C143.539 12.5331 145.011 12.6878 145.981 12.1597C146.216 12.0323 146.739 11.3149 147.33 11.6986C147.409 11.751 147.373 11.9782 147.491 12.08C147.874 12.4038 147.912 11.6187 148.396 12.1939C148.882 12.7689 149.733 13.1127 150.698 12.4842C150.729 12.4655 150.868 11.8235 151.197 11.7745C151.723 11.6965 152.48 11.6895 153.029 11.5871C153.29 11.5381 153.056 11.1969 153.1 11.182C154.817 10.6592 156.129 10.7647 158.031 10.5707C158.382 10.5353 159.283 9.8505 160.017 10.1315C160.827 10.4381 160.407 12.395 162.013 11.6579C162.655 11.3632 163.108 8.89501 164.54 9.87496C166.861 9.153 169.141 9.37984 171.453 8.53821C171.556 8.50082 171.778 7.79642 172.027 7.76213C172.406 7.71092 172.667 7.97666 172.938 7.95025C174.063 7.849 175.055 7.41295 176.126 7.27339C176.53 7.22027 176.444 7.55603 176.94 7.49074C177.435 7.42557 177.693 6.95948 178.375 7.0512C178.901 7.12016 179.55 7.87808 180.216 7.8716C180.105 7.03758 180.561 6.98111 181.344 6.63307C181.493 6.56606 181.281 6.30304 181.349 6.25643C181.625 6.06031 181.937 6.25747 182.189 6.05233C182.25 6.00299 182.213 5.71811 182.263 5.66134C182.698 5.16613 183.583 5.68684 183.731 5.77899C184.304 6.12617 184.519 5.71747 184.939 5.82741C185.36 5.93748 184.797 6.22988 185.274 6.26543C185.858 6.31501 186.629 6.24195 187.276 6.16791L187.248 6.17051C187.672 6.15181 188.078 6.13466 188.436 6.14922C188.801 6.16729 188.573 5.77446 188.625 5.76804C189.017 5.75101 189.542 5.84502 189.625 6.16569C189.637 6.4955 189.437 6.79667 189.575 7.23546C187.745 6.30125 189.369 7.75338 188.199 8.27413C188.105 8.31445 187.405 7.68747 187.575 7.35381C187.739 7.02386 188.335 6.87913 188.473 6.41749C188.489 6.3641 188.439 6.07337 188.304 5.86453C188.238 5.75948 188.144 5.68417 188.044 5.67954C187.947 5.66686 187.843 5.75485 187.819 5.79502C187.767 5.87835 187.717 6.02289 187.703 6.19347C187.688 6.38492 187.719 6.61117 187.798 6.81535C187.968 7.24629 188.234 7.43896 188.397 7.515C188.701 7.63024 188.779 7.47675 188.843 7.34324C188.948 7.05387 188.972 6.68077 188.974 6.64257C188.92 6.20719 188.59 6.20802 188.324 6.3471C188.063 6.48402 187.826 6.74435 187.723 6.78059C187.576 6.83341 187.44 6.87496 187.29 6.90955L187.37 6.90216C186.65 7.13347 185.891 7.12621 185.267 7.39592C184.76 7.60742 184.837 8.52019 184.409 8.55466C183.051 8.66225 182.349 7.48072 181.225 8.77742C180.986 9.0544 181.396 10 180.298 9.38075C180.23 9.34146 179.376 8.75158 179.011 9.27245C178.965 9.33802 179.014 9.62507 178.946 9.66111C178.504 9.89422 178.155 9.71696 177.653 9.91337C177.145 10.1108 176.557 10.3779 175.953 10.3804C175.588 10.3825 175.034 9.9267 174.838 9.82558C174.291 9.5312 173.891 10.2368 173.511 9.83225C173.13 9.4257 173.601 8.62619 172.755 8.46751C172.855 9.21805 172.92 9.99491 173.003 10.7528C171.274 11.026 169.533 11.0847 167.793 11.428C167.581 11.4707 167.87 11.8324 167.644 11.8886C166.693 12.1234 165.77 11.9938 164.794 12.2859C164.032 12.5148 163.24 13.0946 162.45 13.3469C161.801 12.5839 160.629 13.0934 159.741 13.1729C159.428 13.2015 159.407 12.9703 159.174 12.9356C158.294 12.8106 158.819 13.4935 158.612 13.653C157.726 14.3346 157.343 12.6442 156.198 12.8936C156.138 12.9061 155.553 13.9492 155.463 14.0238C154.88 14.5093 155.299 13.7268 154.88 13.7328C154.116 13.7434 153.556 13.62 152.731 14.0425C152.491 14.1668 151.982 14.8423 151.409 14.4928C151.333 14.447 151.316 14.1403 151.26 14.132C150.258 14.0085 150.401 14.9565 149.917 15.3726C149.432 15.7886 148.478 15.286 148.274 15.1284C147.742 14.7218 148.579 14.8601 148.595 14.8081C148.778 14.1904 148.185 14.3966 147.709 14.4315C147.477 13.5179 146.835 13.6887 147.217 14.471C147.26 14.5563 147.607 14.4058 147.709 14.4315C147.46 15.412 146.763 15.6553 145.821 14.9461C145.38 14.6136 145.649 14.0883 144.552 14.4557C144.054 14.622 144.364 15.2248 143.942 15.4776C142.981 16.0546 141.534 15.693 140.487 15.9697C140.107 16.0702 140.543 16.3546 140.286 16.4353C139.602 16.6504 138.936 16.4947 138.256 16.7485C138.194 16.772 138.412 17.1111 138.194 17.153C136.54 17.4777 135.058 17.4855 133.315 17.7658C132.48 17.9005 131.004 18.3477 130.131 18.4454C128.608 18.6197 126.671 18.3762 125.398 18.7021C124.571 18.9124 124.814 19.2504 124.488 19.555C123.855 20.146 122.495 19.4588 122.312 19.3477C122.306 19.3442 123.015 19.152 122.602 19.02C122.321 18.6601 122.32 19.3448 122.312 19.3477C122.197 19.2764 120.718 19.4039 120.445 19.5133C120.294 19.5736 120.431 19.9094 120.351 19.9342C118.448 20.5195 116.504 20.869 114.5 20.9487C114.464 20.9459 114.469 20.5493 114.385 20.5476C113.79 20.5311 113.329 20.6657 112.901 20.8534C110.998 21.0139 109.544 19.7357 109.728 17.8356C109.788 16.6541 110.043 16.244 110.197 15.7922C110.365 15.3725 110.519 15.0483 110.679 14.7481C111.335 13.5617 111.983 13.1358 112.866 13.2236C113.349 12.6577 114.266 12.2195 114.724 11.9997C115.187 11.7744 114.583 11.2805 114.588 11.2557C114.587 11.1652 114.553 11.09 114.403 11.314C114.34 11.4234 114.206 11.6266 114.145 12.165C114.055 12.6454 114.306 13.7553 114.851 14.3124C115.421 14.9284 115.791 15.0205 116.027 15.1178C116.234 15.1886 116.371 15.2055 116.421 15.2102C116.546 15.2197 116.52 15.2 116.464 15.1886C116.26 15.1679 115.995 15.1422 115.678 15.1333C115.402 15.1199 115.069 15.1216 114.67 15.1624C113.983 15.2219 112.457 15.6064 111.672 15.8481C111.041 16.04 110.587 15.9494 110.024 16.1828C109.946 16.2146 110.097 16.5312 110.075 16.5492C109.485 17.0884 109.637 16.2062 109.466 16.0899C108.827 15.6717 108.483 15.4497 107.657 15.8891C107.463 15.9906 107.133 17.2901 106.79 17.4376C106.336 17.6288 106.423 17.1693 105.943 17.3822C105.901 17.4002 105.968 17.6568 105.652 17.715C104.229 17.9789 102.62 18.1828 101.13 18.5426C100.927 18.5905 101.28 18.9429 100.988 19.0189C99.6095 19.3777 98.0823 19.6995 96.6833 19.8005C96.3386 19.824 96.4859 19.4909 96.395 19.421C95.8388 18.9999 95.3651 19.8872 95.2634 19.9237C92.8456 20.8139 90.7855 20.5251 88.2712 21.3275C88.134 21.3733 87.1956 22.3808 86.5884 21.7677C86.546 21.7274 85.9409 21.0984 85.5986 21.6568C85.5771 21.6917 85.9388 22.009 85.4087 22.0587C84.8857 22.1072 84.0647 22.4903 83.2787 22.193C83.0269 22.1 82.3989 21.4639 81.7762 22.128C81.7372 22.175 80.8348 23.6033 80.339 22.7565C80.2585 22.6166 80.2116 21.6696 79.432 22.2446C79.2828 22.3554 79.5947 22.5355 79.1884 22.7111C78.5815 22.9794 77.6611 22.8079 76.8952 23.2823C76.7743 23.366 76.1714 24.0498 75.6513 23.5815C75.5707 23.5081 75.7035 23.1857 75.4429 23.1605C74.2199 23.0374 72.8551 23.253 71.5264 22.9262C71.067 22.809 71.3399 22.3213 70.854 22.1309C70.3723 21.9439 69.3873 21.6484 68.7751 21.7266C68.148 21.7989 68.6251 22.7929 67.6244 22.5554C66.6046 22.281 65.4487 21.8337 64.2603 20.7535C63.0936 19.7306 62.1879 17.8916 62.1174 16.2843C61.9566 14.3978 62.9801 13.2624 63.2076 12.997C63.5756 12.5835 63.929 12.3286 64.0988 12.2114C64.306 12.0685 64.4955 11.9562 64.6779 11.8562C64.8302 11.7743 64.963 11.7094 65.1019 11.6444C65.3919 11.5089 65.6094 11.4232 65.8397 11.3345C66.077 11.2432 66.2849 11.1703 66.4898 11.1004C67.3266 10.816 68.0732 10.5969 68.8165 10.3524C69.2365 10.2157 68.7957 10.0603 69.4108 9.83973C71.6731 9.03893 75.2499 7.51988 77.1139 7.34248C78.6316 7.19673 77.1226 8.30773 78.2313 8.01648C78.7619 7.87314 78.8009 6.7706 78.866 6.69751C79.2652 6.29878 79.5841 6.10314 79.7504 6.02153C79.8262 5.99118 79.856 5.9808 79.7802 6.1203C79.7211 6.24553 79.4891 6.61725 79.4623 7.27942C79.4773 7.81852 79.031 7.31299 79.0938 7.82498C79.1621 8.23779 79.3464 8.58187 79.4667 8.74059C79.5869 8.90392 79.6923 8.9808 79.7228 8.9877C79.8002 9.0114 79.7078 8.89096 79.5417 8.81932C79.3717 8.74431 79.2747 9.0257 79.1321 8.93076C79.0159 8.857 78.8832 8.77176 78.7352 8.67381C79.2013 8.80913 79.1348 8.70244 79.0969 8.64501C79.0366 8.57439 78.9071 8.48572 78.7491 8.38427C78.7025 8.35683 79.0325 8.0075 78.6489 7.97495C77.9992 7.9261 76.9938 7.68925 76.0987 8.03685C75.8287 8.14204 75.8791 8.8095 75.2535 8.39985C75.1216 8.31551 75.202 7.49467 74.5798 8.2587C74.4714 8.38409 73.4356 9.44856 72.7928 8.92871C72.6233 8.79083 72.1447 8.1917 71.8254 8.34532C71.783 8.36854 72.0168 8.69775 71.7481 8.77447C70.8014 9.03942 69.7883 9.1808 68.8491 9.49405C68.6002 9.57845 69.0574 9.86259 68.6852 9.97727C68.6056 10.0021 68.5248 10.0262 68.4431 10.0496C67.4083 10.3421 66.1044 10.5484 65.0595 10.6791C64.6479 10.7291 64.856 10.3637 64.8193 10.3376C64.2246 9.91311 64.1059 10.6992 63.9563 10.7781C63.0325 11.2573 62.1949 11.0963 61.3157 11.3958C61.0716 11.4779 61.3287 11.7797 61.2862 11.8219C60.8389 12.2415 61.0806 11.5353 60.7364 11.5441C59.7619 11.5688 58.7554 11.833 57.8314 12.0941C57.4946 12.19 57.9702 12.4988 57.6665 12.5803C55.8597 13.0726 53.9623 13.4698 52.1262 13.6534C51.7809 13.687 51.923 13.3325 51.8372 13.2782C51.245 12.8965 50.6881 13.7235 50.5387 13.8236C49.8616 14.2797 49.5129 14.0718 48.8698 14.2659C45.7166 15.2233 41.7033 15.8626 38.572 16.2937C34.4832 16.8234 31.3756 17.0968 26.98 17.1617C26.6748 17.1573 26.9706 17.5853 26.7042 17.5854C25.6874 17.5593 24.6049 17.5395 23.0356 16.9914C22.2538 16.6664 21.1018 16.2566 20.0351 14.6247C19.5381 13.8234 19.2876 12.86 19.2845 11.9963C19.2827 11.1802 19.4282 10.5914 19.6244 10.0199C19.8763 9.32561 20.1602 8.95591 20.3884 8.66549C20.5816 8.42991 20.7035 8.3083 20.8447 8.17042C21.1439 7.88669 21.2853 7.7798 21.4796 7.62725C21.6789 7.47434 21.808 7.38273 21.9631 7.27433C22.1153 7.16844 22.2668 7.06743 22.3945 6.9835C22.9616 6.61338 23.4347 6.3268 23.9282 6.02264C24.1395 5.89429 23.6395 5.71835 23.9658 5.50522C24.6379 5.06429 25.502 4.63616 26.2475 4.39757C26.6049 4.28363 26.3175 4.81242 26.674 4.69184C27.511 4.40906 28.3456 4.02634 29.1091 3.58119C29.4329 3.39149 28.7473 3.27542 29.1822 3.05733C30.625 2.32977 32.046 1.62129 33.4738 0.97166C34.1729 0.652995 34.9172 0.330614 35.5097 0.0851774C35.6123 0.0513883 35.8491 -0.0754015 35.6665 0.0639729C35.6308 0.0918751 35.6116 0.106313 35.5142 0.184783C35.3651 0.341065 35.1348 0.373084 34.5266 1.35831C34.376 1.64787 34.2213 1.90967 34.0799 2.59946C33.8143 3.56227 34.2731 5.44329 35.2526 6.27296C36.184 7.13342 36.9025 7.24834 37.3188 7.34528C37.5351 7.38573 37.7002 7.40033 37.836 7.40803C37.9652 7.41562 38.1033 7.41353 38.1022 7.41314C38.3411 7.40679 38.4686 7.38636 38.5617 7.37155C38.7433 7.3395 38.7699 7.32296 38.7751 7.31727C38.7836 7.30975 38.775 7.30611 38.7548 7.3058C38.6514 7.31085 38.5172 7.32615 38.3242 7.36019C38.1738 7.38076 37.9927 7.41061 37.7827 7.44932C37.7051 7.46281 37.6269 7.47612 37.5483 7.48922C37.3246 7.52646 36.8739 6.80808 36.4624 7.11335C36.5016 7.34163 36.5893 7.59618 36.6525 7.83299C32.1845 9.47478 27.6315 10.6962 23.0844 12.156C22.8928 12.2176 23.3604 12.523 22.99 12.6444C20.8452 13.3477 18.8064 14.1472 16.4725 14.4536C16.2414 14.4845 16.1127 13.718 15.5101 14.0371C15.4057 14.0935 14.4645 14.5082 14.2709 14.7464C14.2443 14.7816 14.5335 15.0648 14.2229 15.1768C12.4265 15.818 10.4945 16.355 8.61652 16.7213C8.31336 16.7796 8.51152 16.3159 8.29103 16.3554C6.74807 16.632 5.20889 17.418 3.68321 17.5166C2.63694 17.5874 2.83811 16.8371 2.12271 16.3711C2.02133 16.3058 1.43339 16.4618 1.29067 16.1088C0.948682 15.2176 0.949854 14.1333 0.549757 13.1936C0.452423 12.9952 -0.217785 13.4297 0.0722739 12.799C0.0852308 12.7591 0.610673 12.4255 0.685393 12.2166C0.744958 12.0701 0.466501 11.7509 0.614886 11.5423C0.766992 11.3326 1.07267 11.5785 1.33909 11.3044C1.61103 11.0259 1.34679 10.6491 1.97016 10.4057ZM116.517 13.586C116.479 13.5359 116.434 13.5186 116.392 13.5252C116.136 13.5647 116.171 14.3205 116.425 14.2944C116.452 14.2915 116.478 14.2753 116.5 14.2424C116.509 14.2251 116.531 13.6041 116.517 13.586ZM169.36 10.0852C168.56 9.62386 168.228 10.5694 168.804 10.9328C169.379 11.296 169.604 10.225 169.36 10.0852ZM176.541 8.40164C175.655 8.07655 175.847 9.97999 176.647 9.45336C176.693 9.42342 176.593 8.42053 176.541 8.40164ZM4.41652 15.4847C4.40256 15.4704 3.98035 15.5818 3.97722 15.6012C3.88031 16.0782 4.7244 15.8551 4.41652 15.4847ZM183.69 6.77797C183.402 6.55956 182.702 6.96737 183.071 7.23604C183.37 7.45157 184.051 7.0489 183.69 6.77797ZM88.73 17.7009C88.7178 17.6829 88.4053 17.7236 88.4325 17.8338C88.5209 18.1888 88.9332 18.0057 88.73 17.7009ZM184.993 10.1035C186.429 8.9465 188.304 9.42186 186.675 10.5888C186.38 10.8011 186.937 9.69877 186.493 9.89386C185.684 10.2502 185.916 11.3611 184.925 11.5329C184.744 11.5633 184.907 10.1672 184.994 10.0998C184.994 10.101 184.993 10.1023 184.993 10.1035ZM116.216 11.9786C116.21 11.9595 115.783 11.9721 115.77 11.9924C115.581 12.4342 116.418 12.4092 116.216 11.9786ZM70.5296 18.4456C70.5137 18.4144 69.5645 18.1785 69.5462 18.1979C68.8431 18.7611 70.8581 19.2704 70.5296 18.4456ZM132.76 14.1061C133.16 13.6047 133.715 13.4614 134.179 13.9314C133.706 13.9811 133.234 14.055 132.76 14.1061Z" fill="var(--stroke-0, #D4AF37)"/>
</svg>
