<svg preserveAspectRatio="none" width="100%" height="100%" overflow="visible" style="display: block;" viewBox="0 0 237.64 23.8358" fill="none" xmlns="http://www.w3.org/2000/svg">
<path id="Vector 2" d="M8.15233 6.17915C6.75364 7.0955 5.07393 8.12016 3.41373 9.09212C3.40033 9.09822 3.41869 9.08819 3.47823 9.03694C3.50795 9.01102 3.54806 8.97435 3.59857 8.92016C3.67277 8.84036 3.78817 8.70549 3.90185 8.48943C4.01509 8.27015 4.12728 7.97679 4.14776 7.57047C4.17355 7.12911 4.0346 6.65317 3.84767 6.34415C3.75568 6.18659 3.65737 6.06289 3.56779 5.96678C3.49483 5.8894 3.44958 5.84939 3.39724 5.80492C3.29688 5.721 3.21711 5.67041 3.15785 5.63617C3.03429 5.56737 3.01441 5.56876 3.00866 5.56717C3.00374 5.56742 3.0226 5.57643 3.0592 5.5887C3.14451 5.61628 3.2229 5.63817 3.34992 5.66696C3.84774 5.77763 4.4472 5.85667 5.03025 5.92263C5.87667 6.01235 5.42157 6.114 6.0284 6.17539C7.19441 6.28721 8.30914 6.24776 9.51316 6.32386C9.8969 6.34904 9.41475 6.55389 9.82044 6.57522C12.0819 6.68824 14.3011 6.60952 16.5827 6.61164C28.0402 6.58967 39.2882 6.11347 50.9178 5.63859C54.7295 5.47972 59.4091 5.42867 63.3584 5.13693C63.8248 5.10241 63.5368 4.93309 63.6248 4.91324C64.9802 4.60888 64.5426 5.00446 65.4407 5.00639C69.0523 5.0104 72.9761 4.8163 76.425 4.55815C76.7819 4.53133 76.965 4.49421 77.058 4.45517C77.3466 4.33347 76.765 4.19167 77.8916 4.28768C77.9947 4.29616 77.6334 4.51107 78.0361 4.51082C78.9479 4.50933 80.6758 4.39028 81.3824 4.37417C82.7452 4.34353 82.9663 4.33223 84.2574 4.28199C86.0176 4.21593 88.1142 4.24068 90.0015 4.14394C90.4055 4.12271 89.8652 3.93684 90.5082 3.88521C91.1473 3.83307 92.8534 3.81011 93.4317 3.84665C94.0067 3.88257 93.765 4.04511 93.8672 4.07924C94.7093 4.36674 96.6752 3.91673 96.9254 3.90456C101.554 3.6781 105.526 3.9375 109.873 4.09631C112.525 4.20025 115.355 4.30258 118.01 4.63949C118.39 4.68912 118.735 4.74976 119.051 4.82251C119.411 4.90556 119.781 5.01579 120.12 5.1631C120.686 5.43185 121.445 5.79724 121.702 6.89361C121.86 7.9157 121.376 8.54367 121.076 8.96608C120.386 9.8376 119.642 10.3768 118.917 10.9001C117.441 11.9314 115.928 12.7665 114.31 13.6398C113.963 13.8248 114.482 13.8181 114.055 14.0452C109.601 16.3823 105.006 18.2927 100.291 19.9015C99.822 20.0593 100.346 19.6431 99.8746 19.788C97.6301 20.479 94.4009 21.3385 92.2051 22.1081C91.4154 22.3641 90.9745 22.5952 90.5835 22.8878C90.279 22.9426 90.0066 22.9887 89.7705 23.0249C89.7095 23.0343 89.6607 23.0414 89.5944 23.0512C89.4963 23.0662 89.4057 23.0791 89.3219 23.0901C89.238 23.1011 89.1609 23.1101 89.0884 23.1171C88.9962 23.1251 89.0133 23.1262 88.8196 23.135C88.7455 23.1363 88.6736 23.1398 88.5337 23.1202C88.4615 23.1079 88.3711 23.0953 88.2152 23.0272C88.073 22.9595 87.7796 22.8092 87.613 22.3848C87.4472 21.9512 87.6114 21.5356 87.7204 21.3782C87.7859 21.2784 87.8101 21.2565 87.8346 21.2276C87.8594 21.2 87.8823 21.1771 87.9034 21.1571C87.9879 21.0786 88.0457 21.0413 88.0943 21.0099C88.2778 20.8995 88.3706 20.8706 88.5065 20.8171C88.6676 20.7588 88.7633 20.7297 88.9188 20.6811C89.2613 20.5749 89.4805 20.5169 89.755 20.4431C90.8865 20.1418 91.9279 19.9138 92.8292 19.7622C94.0499 19.5537 92.997 20.0699 94.3354 19.6126C94.6453 19.5082 94.1814 19.4268 94.6554 19.2834C96.6597 18.6784 98.8462 18.1861 100.834 17.5828C101.225 17.4629 101.075 17.3181 101.18 17.2589C102.076 16.7683 103.807 16.7809 104.148 16.7293C106.91 16.2905 108.807 15.742 111.29 15.1613C111.872 15.0254 111.129 14.9563 111.688 14.8171C114.553 14.108 117.561 13.4379 120.411 12.9077C121.044 12.7906 120.511 13.1175 120.816 13.0717C122.16 12.8679 122.384 12.4265 123.667 12.229C123.938 12.1868 123.824 12.3893 123.877 12.3971C124.706 12.5214 125.282 11.9628 125.478 11.9108C127.949 11.2452 129.633 11.34 132.037 10.7784C132.324 10.7111 131.629 10.6304 132.438 10.4545C137.836 9.2821 143.591 8.23547 149.035 7.52077C149.878 7.41056 149.305 7.67086 149.362 7.68225C150.274 7.85546 150.732 7.35373 151.024 7.29186C153.19 6.83648 155.285 6.90754 156.653 6.22804C159.138 5.96877 161.556 5.73448 163.998 5.6515C170.754 5.41432 177.524 4.80342 184.303 4.86876C184.421 4.86945 184.218 5.08689 184.454 5.08744C187.263 5.10952 186.707 4.80226 188.58 4.38452C189.054 4.2776 190.495 4.78477 190.613 4.83058C190.639 4.83891 190.661 4.84772 190.681 4.85694C191.025 5.012 190.584 5.27233 190.732 5.30231C192.005 5.58491 191.806 4.45724 193.681 4.78804C193.738 4.80218 193.457 4.93477 193.606 4.98665C194.064 5.17123 194.588 5.15462 195.121 5.75081C195.266 5.93228 195.366 6.18876 195.362 6.42144C195.361 6.65277 195.281 6.83407 195.201 6.95792C195.031 7.21278 194.841 7.33526 194.655 7.46908C194.277 7.72805 193.894 7.98398 193.35 8.5576C193.242 8.66967 193.572 8.87687 193.121 9.3666C192.988 9.51058 192.786 9.67825 192.484 9.86762C191.97 10.221 189.585 11.6139 188.864 11.9024C188.157 12.2122 188.548 11.8071 188.495 11.8246C186.529 12.4881 187.184 12.0536 186.108 12.1221C185.031 12.1705 185.618 12.872 185.262 13.1175C184.904 13.3689 183.41 13.6766 183.038 13.7131C182.666 13.7566 183.066 13.5037 182.743 13.5639C180.601 13.9329 181.952 14.2535 181.297 14.585C179.727 15.3465 178.277 14.9823 176.752 15.1643C176.337 15.2118 176.697 15.3062 176.331 15.3755C174.872 15.6384 173.969 15.5355 172.305 15.8262C172.04 15.8757 170.676 16.3266 169.79 16.0363C169.665 15.9947 170.019 15.8342 169.389 15.7959C168.448 15.7424 166.762 15.631 165.752 15.5869C165.007 15.5558 165.837 15.9076 164.902 15.7268C164.491 15.6429 165.275 15.5761 164.506 15.4297C163.737 15.2935 161.772 14.9703 161.032 14.7931C160.296 14.6281 160.652 14.9176 160.589 14.9174C160.566 14.9168 160.54 14.9154 160.51 14.9132C160.374 14.8995 160.185 14.8706 159.991 14.8297C159.802 14.7898 159.592 14.7365 159.36 14.6488C158.965 14.5245 158.517 14.1746 158.484 14.1139C158.254 13.8685 158.086 13.5122 158.101 13.1277C158.118 12.7419 158.259 12.4757 158.404 12.2488C158.696 11.8146 159.044 11.524 159.379 11.2622C160.079 10.7332 160.757 10.3615 161.486 9.98794C162.905 9.27327 164.353 8.69481 165.802 8.15308C168.705 7.07778 171.617 6.16275 174.614 5.20542C175.078 5.05853 174.707 4.94625 174.777 4.92173C176.389 4.35813 175.25 5.27865 176.442 5.1362C176.163 4.76623 176.849 4.64747 177.985 4.30077C178.544 4.13208 178.196 4.04923 178.243 4.01925C178.998 3.56218 179.677 3.74553 179.829 3.78053C180.459 3.89163 180.971 3.4912 181.416 3.59284C181.811 3.71047 181.01 4.03077 182.071 3.93499C182.076 3.93495 182.082 3.9349 182.087 3.93485C182.249 3.86452 182.147 3.74454 182.068 3.62786C182.024 3.54215 181.982 3.45843 182.067 3.39531C182.131 3.35399 182.26 3.32192 182.465 3.3106C182.693 3.29927 182.866 3.29127 183.122 3.29879C183.263 3.30397 183.396 3.3128 183.522 3.32623C183.653 3.34218 183.74 3.34803 183.952 3.40266C184.042 3.42713 184.129 3.45653 184.218 3.49753C184.264 3.51942 184.3 3.53734 184.357 3.57418C184.439 3.62795 184.525 3.69886 184.6 3.80183C184.766 4.00402 184.781 4.36492 184.711 4.53183C184.647 4.72242 184.537 4.85273 184.447 4.94647C184.326 5.07001 184.192 5.17095 184.035 5.27253C183.895 5.36159 183.796 5.41737 183.658 5.49036C182.615 6.02136 181.534 6.36161 180.412 6.70078C178.246 7.33853 176.092 7.79708 174.813 8.09759C172.265 8.68572 171.424 8.88667 169.934 9.14748C167.213 9.60211 168.255 9.69446 166.601 10.1506C164.931 10.5966 165.623 9.71644 165.352 9.60451C165.085 9.49069 164.856 9.6971 164.545 9.66215C164.236 9.62672 164.855 9.4108 164.157 9.4971C163.459 9.58665 161.602 10.1637 161.378 10.3618C160.906 10.7857 161.822 11.0328 159.946 11.1637C159.838 11.1706 160.158 10.931 159.747 10.9667C156.493 11.2519 153.075 11.578 149.818 11.4751C149.359 11.4592 149.768 11.2408 149.502 11.2284C146.801 11.0514 147.771 11.4277 146.22 11.7254C146.609 11.1967 145.793 10.8989 143.831 10.4727C143.42 10.3739 143.191 10.3302 143.018 10.3201C142.647 10.2921 142.524 10.3993 141.988 10.3912C141.748 10.3834 140.91 10.0804 140.735 10.1722C140.164 10.4651 140.946 10.9544 138.858 10.559C138.766 10.5409 139.085 10.3776 138.763 10.3289C138.267 10.2496 137.878 10.2176 137.468 10.1203C137.356 10.0865 137.261 10.0753 137.081 9.94776C137.001 9.88633 136.86 9.74868 136.839 9.51665C136.822 9.30181 136.913 9.15654 136.959 9.08509C137.178 8.79773 137.296 8.74753 137.446 8.62999C137.964 8.24265 138.472 7.83627 139.53 7.2858C141.117 6.44436 144.132 5.40945 146.053 4.77936C146.22 5.35833 147.958 4.60723 148.577 3.98295C149.835 3.60458 151.196 3.19706 152.438 2.9429C152.866 2.85533 152.631 3.09575 152.689 3.10067C153.576 3.18549 154.034 2.66472 154.307 2.5861C157.27 1.76277 159.784 1.65747 162.644 0.994299C162.746 0.971373 162.862 0.530071 163.677 0.747044C163.729 0.762846 162.789 1.06028 164.16 0.922816C165.529 0.783938 168.128 0.791915 170.017 0.504035C170.477 0.431879 171.63 0.0363662 172.578 0.275243C172.704 0.307625 172.571 0.432553 172.753 0.494266C173.341 0.691383 173.649 0.257679 174.337 0.606613C175.032 0.956147 176.443 1.20551 178.356 0.975054C178.415 0.968441 178.876 0.635215 179.48 0.650822C180.439 0.674925 181.811 0.781927 182.809 0.816289C183.293 0.832692 182.991 0.612067 183.075 0.611295C186.318 0.618635 188.615 0.944041 192.061 1.26327C192.694 1.32212 194.544 1.16969 195.745 1.48513C197.083 1.83075 195.612 2.75758 198.735 2.73564C199.673 2.72758 200.861 2.05983 202.294 2.05009C202.785 2.04756 203.318 2.14227 203.822 2.42076C204.648 2.55469 205.683 2.93031 205.622 3.75887C205.532 4.55424 204.818 5.20663 204.139 5.67454C202.114 7.01734 199.745 7.65437 197.262 8.16654C197.074 8.20625 196.499 8.65032 196.033 8.6908C195.392 8.7472 195.008 8.62504 194.567 8.62497C194.519 8.62841 194.498 8.57582 194.535 8.54458C194.561 8.52599 194.588 8.5065 194.617 8.48585C196.384 7.41034 198.189 6.78372 200.075 6.19697C200.807 5.98519 200.593 6.23104 201.461 5.99088C202.328 5.7547 202.84 5.37329 204.046 5.17634C204.956 5.03037 205.961 5.26891 207.155 5.04501C207.09 4.58102 207.905 4.39538 209.33 3.95468C209.605 3.86991 209.27 3.7769 209.398 3.72858C209.926 3.52689 210.441 3.55403 210.94 3.35543C211.059 3.30799 211.032 3.15059 211.128 3.10297C211.953 2.68827 213.448 2.75524 213.706 2.76886C214.694 2.81666 215.099 2.52836 215.834 2.48512C216.574 2.44173 215.513 2.7587 216.37 2.65665C216.786 2.60752 217.224 2.54738 217.685 2.47853C219.166 2.30819 220.808 2.08849 222.178 1.94228C222.893 1.86532 222.382 1.70737 222.484 1.69143C223.958 1.47528 225.479 1.56004 226.261 1.0624C227.388 2.06225 227.145 0.873433 229.286 0.910075C229.454 0.913599 229.71 1.41241 229.077 1.54298C228.444 1.67351 227.457 1.59615 226.579 1.79516C226.372 1.84134 225.213 2.43802 225.054 2.48366C223.794 2.83756 223.535 2.08823 223.462 2.05232C222.643 1.67352 221.231 2.36178 220.853 2.44579C219.736 2.68777 218.721 2.81768 217.751 2.97151L217.773 2.9678C217.223 3.07416 216.709 3.18187 216.184 3.32339C215.246 3.57726 215.24 4.09612 214.496 4.22463C212 4.6645 210.989 4.15178 208.789 5.27022C208.318 5.51231 208.938 5.93403 207.06 5.92526C206.938 5.92473 205.535 5.85071 204.829 6.29215C204.743 6.34703 204.786 6.50282 204.665 6.54782C203.842 6.84982 203.253 6.87193 202.364 7.18309C201.475 7.49514 200.415 7.90249 199.392 8.18025C198.774 8.34603 197.912 8.33464 197.601 8.3754C196.717 8.47912 196.04 9.16571 195.545 9.16923C195.076 9.19646 195.475 8.5111 194.746 8.79887L194.546 8.29521C194.645 8.31086 194.773 8.32245 194.927 8.32895C194.952 7.90573 195.038 7.46679 195.091 7.03858C198.115 6.81836 201.132 6.31734 203.459 4.69949C203.46 4.69896 203.461 4.69843 203.462 4.69791C203.695 4.52369 203.327 4.51914 203.56 4.32763C203.798 4.12376 204.004 3.90329 204.114 3.74704C204.242 3.58145 204.162 3.56241 204.234 3.83857C204.274 3.95772 204.352 4.02949 204.356 4.02283C204.363 4.01986 204.306 3.97029 204.209 3.92386C204.011 3.82538 203.672 3.73387 203.297 3.68895C202.965 3.64844 202.597 3.64155 202.205 3.65642C201.131 3.68879 199.995 3.74915 198.904 3.71632C198.023 3.174 195.769 3.17076 194.153 3.00836C193.586 2.95183 193.638 2.82685 193.238 2.75598C191.723 2.49237 192.404 2.96735 191.986 3.00485C190.186 3.16721 190.096 2.19454 187.985 2.09119C187.877 2.08494 186.473 2.52006 186.291 2.54353C185.094 2.69092 186.105 2.35478 185.361 2.28009C183.999 2.14626 183.053 1.98387 181.457 2.08684C180.986 2.11728 179.87 2.40938 178.968 2.15035C178.849 2.11634 178.917 1.94776 178.821 1.93656C177.094 1.75245 177.038 2.29022 176.057 2.47326C175.075 2.65656 173.547 2.32078 173.233 2.22483C172.413 1.97301 173.853 2.09095 173.895 2.06485C174.405 1.73445 173.295 1.80995 172.439 1.81215C172.297 1.29284 171.106 1.37071 171.556 1.81832C171.608 1.86666 172.265 1.79347 172.439 1.81215C171.71 2.34845 170.414 2.46443 168.948 2.07713C168.26 1.8994 168.875 1.58395 166.832 1.83885C165.905 1.96078 166.293 2.2877 165.487 2.46137C163.645 2.8585 161.195 2.83129 159.294 3.20313C158.608 3.33729 159.312 3.41861 158.845 3.51785C157.607 3.7847 156.484 3.8518 155.257 4.19679C155.146 4.22843 155.464 4.36924 155.08 4.45671C152.175 5.13286 149.635 5.7057 146.704 6.74777C145.286 7.2416 142.845 8.36891 141.444 9.02054C140.489 9.45467 139.454 9.91661 138.423 10.4158C138.367 10.4373 138.316 10.4769 138.402 10.3981C138.427 10.372 138.453 10.3496 138.52 10.2635C138.577 10.1807 138.667 10.0721 138.74 9.7868C138.816 9.54669 138.758 9.05869 138.604 8.82591C138.465 8.58453 138.317 8.47636 138.248 8.42522C137.953 8.24592 138.034 8.33174 138.064 8.33256C138.112 8.35044 138.193 8.37196 138.282 8.39207C138.642 8.4725 139.089 8.53707 139.517 8.59958C140.38 8.72282 141.233 8.8401 142.006 8.9702C142.784 9.10276 143.15 9.16387 143.387 9.16507C143.578 9.14296 143.654 9.07092 143.961 9.07424C145.032 9.10429 147.133 9.75784 147.401 9.83628C147.415 9.84535 146.147 9.79714 146.823 9.95569C147.19 10.204 147.388 9.83613 147.401 9.83628C147.576 9.91795 150.167 10.0022 150.657 9.92982C150.935 9.90097 150.774 9.70993 150.918 9.69823C154.367 9.41317 157.808 8.97188 161.328 8.53951C161.39 8.53414 161.33 8.76411 161.476 8.74869C163.521 8.53463 164.777 8.04247 166.411 7.57635C168.046 7.10709 169.371 6.88407 170.423 7.04051C171.673 6.72433 173.489 6.47076 174.537 6.31121C175.597 6.14959 175.611 5.70238 175.699 5.67164C178.395 4.65669 180.214 4.47196 182.621 3.41821C182.683 3.38631 182.738 3.35641 182.781 3.33011C182.841 3.29486 182.87 3.26829 182.838 3.29618C182.825 3.3112 182.784 3.32976 182.671 3.49858C182.574 3.66936 182.379 3.96372 182.482 4.57207C182.598 5.1635 183.049 5.47563 183.133 5.51884C183.23 5.57618 183.283 5.5935 183.302 5.60099C183.321 5.60647 183.119 5.56965 182.857 5.56014C182.657 5.55184 182.395 5.55 182.082 5.5578C181.917 5.5689 181.397 5.66441 180.976 5.7627C180.582 5.85357 180.157 5.96239 179.836 6.04965C178.689 6.36403 177.926 6.46737 176.884 6.82463C176.739 6.87451 176.939 7.01457 176.896 7.03431C175.76 7.59342 176.209 6.98534 175.937 6.97728C174.946 6.95516 174.346 6.96299 172.849 7.58701C172.506 7.72982 171.685 8.69848 171.064 8.95228C170.253 9.28224 170.486 8.94817 169.643 9.30664C169.571 9.33757 169.634 9.47015 169.103 9.65524C166.657 10.5209 163.911 11.4956 161.791 12.7679C161.509 12.944 161.98 12.9236 161.602 13.1715C161.337 13.3494 161.085 13.5387 160.917 13.6974C160.842 13.7668 160.788 13.833 160.796 13.8251C160.791 13.8229 160.902 13.722 160.956 13.3494C161.026 12.9428 160.806 12.3917 160.625 12.2137C160.477 12.0478 160.428 12.0478 160.466 12.0663C160.55 12.1168 160.803 12.2174 161.143 12.3057C162.015 12.534 162.9 12.7274 163.751 12.8968C164.323 13.0088 163.939 13.1175 164.057 13.1838C164.798 13.5895 165.947 13.2704 166.129 13.2755C170.471 13.4002 173.89 13.5981 178.233 12.5579C178.477 12.5058 180.166 11.6475 181.061 11.7874C181.119 11.7988 182.031 11.955 182.636 11.4638C182.673 11.4327 182.126 11.3992 182.974 11.1358C183.824 10.8707 185.102 10.2336 186.301 9.93251C186.677 9.83998 187.696 9.81205 188.568 8.97598C188.636 8.9242 189.799 7.42984 190.585 7.50241C190.703 7.51276 190.879 7.94537 191.676 7.25093C191.751 7.18463 191.828 7.11079 191.911 7.02448C192.088 6.83431 191.654 7.00267 192.14 6.5604C192.319 6.39375 192.513 6.22647 192.669 6.07951C192.819 5.95175 192.956 5.74277 192.833 5.93176C192.805 5.98731 192.754 6.08609 192.716 6.27832C192.679 6.45795 192.673 6.75418 192.758 7.02691C192.948 7.6032 193.249 7.76771 193.3 7.82243C193.432 7.91557 193.199 7.84297 192.975 7.8614C192.827 7.86155 191.981 8.09196 191.248 7.7804C191.133 7.73085 191.368 7.56756 190.969 7.52536C190.843 7.51233 190.712 7.50085 190.576 7.49082C188.768 7.35998 186.77 7.50737 184.842 7.46197C184.103 7.44702 184.473 7.14755 183.701 7.1029C182.932 7.05784 181.378 7.05941 180.58 7.23222C179.781 7.40478 180.682 7.81076 179.481 7.912C174.377 8.34118 169.285 8.45534 164.098 8.59449C163.978 8.59725 163.857 8.6007 163.734 8.60486C163.003 8.63388 163.638 8.76008 162.514 8.83051C158.432 9.07279 151.241 10.3215 147.593 10.6093C144.678 10.8327 148.26 9.99825 146.038 10.2705C144.953 10.4062 143.895 11.1348 143.646 11.1973C141.16 11.8243 139.384 11.9285 137.133 12.446C136.672 12.5525 137.168 12.6719 136.775 12.7604C135.434 13.0648 133.982 13.2622 132.699 13.545C132.121 13.6729 132.261 13.8107 131.725 13.9093C130.44 14.1479 129.3 14.3188 128.025 14.4351C127.908 14.4458 128.63 14.0836 127.685 14.2782C126.153 14.5947 124.231 14.8592 122.504 15.4026C121.992 15.5645 122.051 15.9331 120.879 15.9316C120.632 15.9318 120.835 15.4263 119.619 16.0975C119.407 16.2108 117.336 17.2168 116.195 17.1353C115.889 17.115 115.077 16.9263 114.466 17.1275C114.384 17.1561 114.767 17.2726 114.256 17.4118C112.464 17.8961 110.548 18.3271 108.671 18.8427C108.173 18.98 108.968 19.0022 108.226 19.2001C106.233 19.7335 103.617 20.3208 101.621 20.755C100.9 20.9109 101.352 20.6202 101.295 20.6152C100.362 20.536 99.9253 21.0706 99.6537 21.1643C97.9562 21.7442 96.5463 21.9096 94.9031 22.3994C94.473 22.5282 94.8309 22.6353 94.7492 22.6752C93.9135 23.0758 94.4789 22.5599 93.8666 22.6849C93.4314 22.7743 93.0129 22.8685 92.6221 22.9629C92.1517 23.0794 91.7079 23.1971 91.3268 23.3041C91.1347 23.358 90.8592 23.4384 90.6635 23.4978C90.5606 23.5289 90.4643 23.5587 90.3749 23.5869C90.3302 23.6011 90.2872 23.6148 90.246 23.6281C90.187 23.647 90.1244 23.6674 90.0701 23.6855C89.8521 23.7574 89.6924 23.8184 89.6558 23.8358C89.6715 23.8286 89.7032 23.8155 89.7796 23.7715C89.859 23.7178 89.9745 23.6778 90.252 23.3822C90.2882 23.3356 90.4837 23.145 90.6433 22.7375C90.8114 22.3518 90.858 21.5936 90.5527 21.0352C90.2598 20.4741 89.8669 20.2375 89.6341 20.115C89.3894 19.9932 89.236 19.96 89.1223 19.9344C88.7046 19.8632 88.7026 19.9024 88.6803 19.895C88.6686 19.8946 88.7209 19.8886 88.8011 19.8757C89.4078 19.7716 88.7468 19.6478 89.19 19.5678C89.9471 19.4237 90.6346 19.2758 91.5641 19.0783C93.7519 18.574 96.2949 17.7086 98.6217 16.9584C99.1946 16.7715 98.9004 17.0669 99.0321 17.0606C99.9537 17.0168 101.018 16.1952 101.284 16.0503C102.471 15.4036 103.016 15.3478 104.105 14.8641C106.755 13.6787 109.725 12.3392 112.517 10.8956C113.907 10.1746 115.28 9.41379 116.463 8.63326C117.063 8.23656 117.608 7.83599 118.02 7.46325C118.228 7.27582 118.396 7.09479 118.477 6.98617C118.574 6.88449 118.495 6.83598 118.469 7.27089C118.466 7.43927 118.522 7.69082 118.619 7.86468C118.711 8.0362 118.802 8.12105 118.855 8.16617C118.956 8.2402 118.881 8.17117 118.76 8.12598C118.494 8.01775 118.083 7.91758 117.577 7.84112C112.18 7.10638 107.259 6.95129 101.523 6.94878C101.084 6.95056 101.526 7.1837 101.148 7.18841C96.295 7.24181 91.498 7.25189 86.6217 7.4907C86.223 7.51003 86.8061 7.70962 86.166 7.7483C84.8467 7.82949 83.1844 7.88535 81.8471 7.87565C81.1973 7.87124 82.0585 7.64267 81.4042 7.64228C80.0558 7.64168 78.631 7.69332 77.2389 7.78938C77.0496 7.8024 76.8613 7.81607 76.6742 7.83039C76.0013 7.88239 77.0296 8.05242 76.1547 8.10242C70.2402 8.44504 64.4297 8.79493 58.4296 8.81343C58.0168 8.81471 57.631 8.37596 56.7689 8.50829C56.7102 8.63862 56.7214 8.7878 56.7 8.92498C48.0726 9.44039 39.5625 9.70115 30.8984 10.0241C30.5372 10.0375 31.1816 10.2549 30.4645 10.2826C26.3758 10.4396 22.3853 10.6473 18.1822 10.5022C17.7621 10.4877 17.9915 10.0568 16.7509 10.1461C16.5092 10.1635 14.7174 10.25 14.2019 10.3473C14.1368 10.362 14.4787 10.5576 13.8782 10.57C10.4026 10.6108 6.83251 10.659 3.08971 10.0885C2.48893 9.97498 3.20028 9.87372 2.72081 9.77804C2.4925 9.7302 2.28852 9.68199 2.06993 9.62077C1.92996 9.5821 1.79367 9.53989 1.6574 9.49069C1.50569 9.43329 1.43749 9.4128 1.1817 9.28323C1.07265 9.2256 0.959231 9.15785 0.83951 9.06934C0.779696 9.02501 0.718348 8.97535 0.655954 8.9183C0.594099 8.86039 0.533163 8.80477 0.426646 8.67336C0.236275 8.43853 0.0534295 8.08056 0.0110425 7.67615C-0.0312277 7.24541 0.0540981 6.95152 0.160966 6.69543C0.270854 6.44387 0.406206 6.2619 0.534597 6.1174C0.652768 5.98781 0.706477 5.94223 0.79073 5.86914C0.94744 5.73667 1.09986 5.6335 1.2561 5.53879C3.08682 4.4383 4.91605 3.25243 6.66577 2.32439C8.24883 1.48271 7.88042 2.14727 8.87936 1.9411C9.02068 1.91251 9.95658 1.32093 10.1178 1.46548C10.5296 1.82836 10.3913 2.60715 10.8827 2.96003C10.9834 3.0431 12.1876 2.09201 11.594 2.83542C11.5503 2.88947 10.6872 3.56427 10.5143 3.79161C10.3921 3.9514 10.7908 3.95024 10.5191 4.22823C10.2444 4.50781 9.7949 4.58128 9.31805 5.00412C8.8406 5.42799 9.20497 5.48773 8.15233 6.17915ZM179.239 5.48871C180.225 5.39566 180.12 4.64341 179.194 5.12102C179.148 5.14514 179.187 5.49406 179.239 5.48871ZM201.105 6.55442C202.392 6.42079 202.892 5.5637 202.031 5.71943C201.187 5.83975 200.724 6.58287 201.105 6.55442ZM200.658 6.70683C199.139 6.89762 199.246 7.97797 200.7 7.30574C200.786 7.26728 200.748 6.69571 200.658 6.70683ZM5.19415 4.37151C5.21273 4.37191 5.89488 3.96067 5.9049 3.94265C6.14003 3.51756 4.77678 4.33978 5.19415 4.37151ZM213.473 3.37122C212.987 3.32049 211.691 3.7552 212.298 3.81288C212.785 3.85833 214.082 3.43223 213.473 3.37122ZM176.654 14.8103C176.671 14.8199 177.238 14.7362 177.216 14.6752C177.143 14.4838 176.371 14.6661 176.654 14.8103ZM235.858 0.751166C232.529 0.99929 230.445 0.292759 234.069 0.0855775C234.725 0.0475954 232.68 0.484058 233.521 0.491832C235.065 0.504756 236.022 -0.129792 237.61 0.0240729C237.894 0.0531951 236.05 0.739284 235.853 0.752899C235.855 0.752322 235.856 0.751744 235.858 0.751166ZM180.041 6.17959C180.048 6.1894 180.831 5.94406 180.841 5.92831C181.177 5.56866 179.64 6.05154 180.041 6.17959ZM182.191 5.16523C182.144 5.14514 180.305 5.21811 180.246 5.24168C179.308 5.6777 183.025 5.53093 182.191 5.16523ZM146.089 4.78382C146.831 4.26296 147.819 3.9056 148.573 3.98386C147.741 4.22897 146.916 4.5031 146.089 4.78382Z" fill="var(--stroke-0, #A52C17)"/>
</svg>
