<svg preserveAspectRatio="none" width="100%" height="100%" overflow="visible" style="display: block;" viewBox="0 0 38 38" fill="none" xmlns="http://www.w3.org/2000/svg">
<path id="Vector" d="M32.4623 5.529C28.8915 1.957 24.1367 0 19.0764 0C8.65025 0 0.152764 8.455 0.152764 18.829C0.152764 22.154 1.03116 25.384 2.67337 28.234L0 38L10.0251 35.378C12.794 36.879 15.9065 37.677 19.0764 37.677C29.5025 37.677 38 29.222 38 18.848C38 13.813 36.0332 9.082 32.4623 5.529ZM19.0764 34.485C16.2502 34.485 13.4814 33.725 11.0563 32.3L10.4834 31.958L4.52563 33.516L6.11055 27.74L5.72864 27.151C4.16281 24.662 3.32261 21.774 3.32261 18.829C3.32261 10.203 10.3879 3.173 19.0573 3.173C23.2583 3.173 27.2111 4.807 30.1709 7.771C33.1497 10.735 34.7729 14.668 34.7729 18.848C34.8111 27.474 27.7457 34.485 19.0764 34.485ZM27.7075 22.781C27.2301 22.553 24.9005 21.413 24.4804 21.242C24.0412 21.09 23.7357 21.014 23.4111 21.47C23.0864 21.945 22.1889 23.009 21.9216 23.313C21.6543 23.636 21.3678 23.674 20.8904 23.427C20.4131 23.199 18.8854 22.686 17.0905 21.09C15.6774 19.836 14.7417 18.297 14.4553 17.822C14.1879 17.347 14.4171 17.1 14.6653 16.853C14.8754 16.644 15.1427 16.302 15.3719 16.036C15.601 15.77 15.6965 15.561 15.8492 15.257C16.002 14.934 15.9256 14.668 15.8111 14.44C15.6965 14.212 14.7417 11.894 14.3598 10.944C13.9779 10.032 13.5769 10.146 13.2905 10.127C13.004 10.127 12.6985 10.127 12.3739 10.127C12.0492 10.127 11.5528 10.241 11.1136 10.716C10.6935 11.191 9.47136 12.331 9.47136 14.649C9.47136 16.967 11.1709 19.209 11.4 19.513C11.6291 19.836 14.7417 24.586 19.4774 26.619C20.604 27.113 21.4824 27.398 22.1698 27.607C23.2965 27.968 24.3276 27.911 25.1487 27.797C26.0653 27.664 27.9558 26.657 28.3377 25.555C28.7387 24.453 28.7387 23.522 28.605 23.313C28.4714 23.104 28.1849 23.009 27.7075 22.781Z" fill="var(--fill-0, #000000)"/>
</svg>
