<svg preserveAspectRatio="none" width="100%" height="100%" overflow="visible" style="display: block;" viewBox="0 0 30 30" fill="none" xmlns="http://www.w3.org/2000/svg">
<g id="ri:ancient-gate-line">
<path id="Vector" d="M8.705 3.75H21.295C21.3844 4.36998 21.606 4.96353 21.9446 5.49051C22.2833 6.01748 22.7311 6.46559 23.2579 6.80453C23.7847 7.14347 24.3781 7.36534 24.998 7.45513C25.618 7.54492 26.25 7.50055 26.8513 7.325C26.7399 8.40158 26.2335 9.39868 25.4298 10.1236C24.6262 10.8486 23.5823 11.2499 22.5 11.25H7.5C6.41747 11.2502 5.37331 10.849 4.56938 10.124C3.76545 9.39907 3.25885 8.40179 3.1475 7.325C3.74888 7.50076 4.381 7.5453 5.00108 7.4556C5.62116 7.36591 6.21475 7.14408 6.74168 6.80512C7.26861 6.46616 7.71659 6.01798 8.05531 5.49089C8.39403 4.96381 8.61559 4.37012 8.705 3.75ZM21.125 8.3225C20.448 7.74624 19.8915 7.04193 19.4875 6.25H10.5138C10.1094 7.04204 9.55244 7.74636 8.875 8.3225C8.70123 8.47322 8.52063 8.61588 8.33375 8.75H21.6663C21.4789 8.61591 21.2992 8.47326 21.125 8.3225ZM26.875 14.375C27.5475 14.375 28.1775 14.1975 28.7238 13.8875C28.7413 14.0475 28.75 14.21 28.75 14.375C28.7502 15.2031 28.5153 16.0142 28.0728 16.7141C27.6302 17.4139 26.9982 17.9739 26.25 18.3288V26.25H17.5V23.75C17.5 23.087 17.2366 22.4511 16.7678 21.9822C16.2989 21.5134 15.663 21.25 15 21.25C14.337 21.25 13.7011 21.5134 13.2322 21.9822C12.7634 22.4511 12.5 23.087 12.5 23.75V26.25H3.75V18.33C2.92644 17.9396 2.24535 17.3018 1.80186 16.5055C1.35836 15.7093 1.17461 14.7945 1.27625 13.8888C2.13697 14.3765 3.15554 14.5043 4.11009 14.2444C5.06464 13.9845 5.87782 13.358 6.3725 12.5013H23.6262C23.9555 13.0715 24.4291 13.545 24.9993 13.8741C25.5696 14.2033 26.2165 14.3765 26.875 14.3763M23.7038 16.0125C23.2285 15.7337 22.7922 15.3932 22.4062 15H7.59375C7.21292 15.3892 6.78042 15.7267 6.29625 16.0125C6.04292 16.1625 5.78375 16.2925 5.51875 16.4025L6.25 16.75V23.75H10C10 22.3692 10.4883 21.1908 11.465 20.215C11.9227 19.7421 12.4726 19.368 13.0806 19.1161C13.6887 18.8641 14.3419 18.7395 15 18.75C16.3808 18.75 17.5592 19.2383 18.535 20.215C19.0079 20.6727 19.382 21.2226 19.6339 21.8306C19.8859 22.4387 20.0105 23.0919 20 23.75H23.75V16.75L24.4812 16.4025C24.2133 16.2907 23.9535 16.1604 23.7038 16.0125Z" fill="#A52C17"/>
</g>
</svg>
