<svg preserveAspectRatio="none" width="100%" height="100%" overflow="visible" style="display: block;" viewBox="0 0 35 34.424" fill="none" xmlns="http://www.w3.org/2000/svg">
<path id="Vector" d="M29.8995 5.0087C26.6106 1.77284 22.2312 0 17.5703 0C7.96734 0 0.140704 7.65935 0.140704 17.0571C0.140704 20.0692 0.949749 22.9953 2.46231 25.5771L0 34.424L9.23367 32.0488C11.7839 33.4085 14.6508 34.1314 17.5703 34.1314C27.1734 34.1314 35 26.4721 35 17.0743C35 12.5131 33.1884 8.22735 29.8995 5.0087ZM17.5703 31.2398C14.9673 31.2398 12.4171 30.5513 10.1834 29.2604L9.65578 28.9506L4.16834 30.362L5.62814 25.1296L5.27638 24.596C3.83417 22.3412 3.0603 19.725 3.0603 17.0571C3.0603 9.24286 9.56784 2.87441 17.5528 2.87441C21.4221 2.87441 25.0628 4.35464 27.7889 7.03972C30.5327 9.72479 32.0276 13.2877 32.0276 17.0743C32.0628 24.8886 25.5553 31.2398 17.5703 31.2398ZM25.5201 20.6372C25.0804 20.4307 22.9347 19.3979 22.5477 19.243C22.1432 19.1053 21.8618 19.0365 21.5628 19.4496C21.2638 19.8799 20.4372 20.8438 20.191 21.1192C19.9447 21.4118 19.6809 21.4462 19.2412 21.2224C18.8015 21.0159 17.3945 20.5512 15.7412 19.1053C14.4397 17.9694 13.5779 16.5752 13.3141 16.1449C13.0678 15.7146 13.2789 15.4908 13.5075 15.2671C13.701 15.0777 13.9472 14.7679 14.1583 14.5269C14.3693 14.286 14.4573 14.0966 14.598 13.8213C14.7387 13.5286 14.6683 13.2877 14.5628 13.0811C14.4573 12.8746 13.5779 10.7747 13.2261 9.91413C12.8744 9.08795 12.505 9.19122 12.2412 9.17401C11.9774 9.17401 11.696 9.17401 11.397 9.17401C11.098 9.17401 10.6407 9.27728 10.2362 9.70758C9.84924 10.1379 8.72362 11.1706 8.72362 13.2705C8.72362 15.3703 10.2889 17.4014 10.5 17.6767C10.7111 17.9694 13.5779 22.2724 17.9397 24.114C18.9774 24.5616 19.7864 24.8197 20.4196 25.0091C21.4573 25.3361 22.407 25.2845 23.1633 25.1812C24.0075 25.0607 25.7487 24.1485 26.1005 23.1502C26.4698 22.1519 26.4698 21.3085 26.3467 21.1192C26.2236 20.9298 25.9598 20.8438 25.5201 20.6372Z" fill="var(--fill-0, white)"/>
</svg>
