<svg preserveAspectRatio="none" width="100%" height="100%" overflow="visible" style="display: block;" viewBox="0 0 30 30" fill="none" xmlns="http://www.w3.org/2000/svg">
<g id="fontisto:day-sunny" clip-path="url(#clip0_627_148)">
<path id="Vector" d="M15.1112 29.1088V25.4187C15.1112 25.1824 15.2051 24.9557 15.3723 24.7885C15.5394 24.6214 15.7661 24.5275 16.0025 24.5275C16.2389 24.5275 16.4656 24.6214 16.6327 24.7885C16.7999 24.9557 16.8938 25.1824 16.8938 25.4187V29.1088C16.8938 29.3451 16.7999 29.5718 16.6327 29.739C16.4656 29.9061 16.2389 30 16.0025 30C15.7661 30 15.5394 29.9061 15.3723 29.739C15.2051 29.5718 15.1112 29.3451 15.1112 29.1088ZM25.3488 25.6037L22.74 22.9962C22.6537 22.9143 22.5847 22.8159 22.5371 22.7069C22.4895 22.5979 22.4641 22.4805 22.4626 22.3615C22.4611 22.2425 22.4834 22.1245 22.5282 22.0143C22.573 21.9041 22.6394 21.8039 22.7236 21.7198C22.8077 21.6357 22.9078 21.5693 23.018 21.5244C23.1282 21.4796 23.2463 21.4573 23.3652 21.4588C23.4842 21.4604 23.6017 21.4857 23.7107 21.5334C23.8197 21.581 23.9181 21.65 24 21.7362L26.6063 24.3475C26.7523 24.5184 26.8283 24.7383 26.8191 24.9629C26.8099 25.1875 26.7162 25.4004 26.5566 25.5588C26.3971 25.7172 26.1836 25.8095 25.9589 25.8172C25.7342 25.8248 25.5149 25.7472 25.345 25.6L25.3462 25.6013L25.3488 25.6037ZM5.39625 25.6037C5.3131 25.5212 5.24711 25.4231 5.20208 25.315C5.15704 25.2069 5.13386 25.0909 5.13386 24.9738C5.13386 24.8566 5.15704 24.7406 5.20208 24.6325C5.24711 24.5244 5.3131 24.4263 5.39625 24.3438L8.005 21.735C8.08693 21.6487 8.18531 21.5797 8.29432 21.5321C8.40334 21.4845 8.52079 21.4591 8.63975 21.4576C8.75871 21.4561 8.87678 21.4784 8.98698 21.5232C9.09719 21.568 9.19731 21.6344 9.28143 21.7186C9.36556 21.8027 9.43199 21.9028 9.47681 22.013C9.52163 22.1232 9.54393 22.2413 9.5424 22.3602C9.54087 22.4792 9.51554 22.5967 9.46789 22.7057C9.42025 22.8147 9.35126 22.9131 9.265 22.995L6.65625 25.6025C6.57375 25.6856 6.47561 25.7516 6.36748 25.7967C6.25935 25.8417 6.14338 25.8649 6.02625 25.8649C5.90912 25.8649 5.79315 25.8417 5.68502 25.7967C5.57689 25.7516 5.47875 25.6869 5.39625 25.6037ZM8.9 14.9975C8.9 13.1135 9.64843 11.3066 10.9806 9.97439C12.3129 8.64218 14.1197 7.89375 16.0038 7.89375C17.8878 7.89375 19.6946 8.64218 21.0269 9.97439C22.3591 11.3066 23.1075 13.1135 23.1075 14.9975C23.1075 16.8815 22.3591 18.6884 21.0269 20.0206C19.6946 21.3528 17.8878 22.1012 16.0038 22.1012C14.1197 22.1012 12.3129 21.3528 10.9806 20.0206C9.64843 18.6884 8.9 16.8815 8.9 14.9975ZM10.6812 14.9975C10.6659 15.7063 10.7922 16.4111 11.0529 17.0704C11.3135 17.7298 11.7032 18.3305 12.1991 18.8372C12.695 19.3439 13.287 19.7466 13.9406 20.0214C14.5941 20.2963 15.296 20.4379 16.005 20.4379C16.714 20.4379 17.4159 20.2963 18.0694 20.0214C18.723 19.7466 19.315 19.3439 19.8109 18.8372C20.3068 18.3305 20.6965 17.7298 20.9571 17.0704C21.2178 16.4111 21.3441 15.7063 21.3288 14.9975C21.2986 13.6055 20.7244 12.2807 19.7293 11.307C18.7342 10.3332 17.3973 9.78787 16.005 9.78787C14.6127 9.78787 13.2758 10.3332 12.2807 11.307C11.2856 12.2807 10.7114 13.6055 10.6812 14.9975ZM26.42 15.8888C26.303 15.8888 26.1871 15.8657 26.0789 15.8209C25.9708 15.7761 25.8726 15.7105 25.7898 15.6277C25.707 15.5449 25.6414 15.4467 25.5966 15.3386C25.5518 15.2304 25.5287 15.1145 25.5287 14.9975C25.5287 14.8805 25.5518 14.7646 25.5966 14.6564C25.6414 14.5483 25.707 14.4501 25.7898 14.3673C25.8726 14.2845 25.9708 14.2189 26.0789 14.1741C26.1871 14.1293 26.303 14.1062 26.42 14.1062H30.11C30.227 14.1062 30.3429 14.1293 30.4511 14.1741C30.5592 14.2189 30.6574 14.2845 30.7402 14.3673C30.823 14.4501 30.8886 14.5483 30.9334 14.6564C30.9782 14.7646 31.0012 14.8805 31.0012 14.9975C31.0012 15.1145 30.9782 15.2304 30.9334 15.3386C30.8886 15.4467 30.823 15.5449 30.7402 15.6277C30.6574 15.7105 30.5592 15.7761 30.4511 15.8209C30.3429 15.8657 30.227 15.8888 30.11 15.8888H26.42ZM1.89125 15.8888C1.77421 15.8888 1.65831 15.8657 1.55018 15.8209C1.44205 15.7761 1.3438 15.7105 1.26104 15.6277C1.17828 15.5449 1.11263 15.4467 1.06784 15.3386C1.02305 15.2304 1 15.1145 1 14.9975C1 14.8805 1.02305 14.7646 1.06784 14.6564C1.11263 14.5483 1.17828 14.4501 1.26104 14.3673C1.3438 14.2845 1.44205 14.2189 1.55018 14.1741C1.65831 14.1293 1.77421 14.1062 1.89125 14.1062H5.5825C5.69954 14.1062 5.81544 14.1293 5.92357 14.1741C6.0317 14.2189 6.12995 14.2845 6.21271 14.3673C6.29547 14.4501 6.36112 14.5483 6.40591 14.6564C6.4507 14.7646 6.47375 14.8805 6.47375 14.9975C6.47375 15.1145 6.4507 15.2304 6.40591 15.3386C6.36112 15.4467 6.29547 15.5449 6.21271 15.6277C6.12995 15.7105 6.0317 15.7761 5.92357 15.8209C5.81544 15.8657 5.69954 15.8888 5.5825 15.8888H1.89125ZM22.7375 8.26C22.6544 8.1775 22.5884 8.07936 22.5433 7.97123C22.4983 7.8631 22.4751 7.74713 22.4751 7.63C22.4751 7.51287 22.4983 7.3969 22.5433 7.28877C22.5884 7.18064 22.6544 7.0825 22.7375 7L25.3462 4.39125C25.4282 4.30499 25.5266 4.236 25.6356 4.18836C25.7446 4.14071 25.862 4.11538 25.981 4.11385C26.1 4.11232 26.218 4.13462 26.3282 4.17944C26.4384 4.22426 26.5386 4.29069 26.6227 4.37482C26.7068 4.45894 26.7732 4.55906 26.8181 4.66927C26.8629 4.77947 26.8852 4.89754 26.8837 5.0165C26.8821 5.13546 26.8568 5.25291 26.8091 5.36193C26.7615 5.47094 26.6925 5.56932 26.6063 5.65125L23.9975 8.26C23.915 8.34315 23.8169 8.40914 23.7087 8.45417C23.6006 8.49921 23.4846 8.52239 23.3675 8.52239C23.2504 8.52239 23.1344 8.49921 23.0263 8.45417C22.9181 8.40914 22.82 8.34315 22.7375 8.26ZM8.0025 8.26L5.39625 5.65375C5.30999 5.57182 5.241 5.47344 5.19336 5.36443C5.14571 5.25541 5.12038 5.13796 5.11885 5.019C5.11732 4.90004 5.13962 4.78197 5.18444 4.67176C5.22926 4.56156 5.29569 4.46144 5.37982 4.37732C5.46394 4.29319 5.56406 4.22676 5.67427 4.18194C5.78447 4.13712 5.90254 4.11482 6.0215 4.11635C6.14046 4.11788 6.25791 4.14321 6.36693 4.19086C6.47594 4.2385 6.57432 4.30749 6.65625 4.39375L9.265 7.0025C9.35126 7.08443 9.42025 7.18281 9.46789 7.29182C9.51554 7.40084 9.54087 7.51829 9.5424 7.63725C9.54393 7.75621 9.52163 7.87428 9.47681 7.98449C9.43199 8.09469 9.36556 8.19481 9.28143 8.27893C9.19731 8.36306 9.09719 8.42949 8.98698 8.47431C8.87678 8.51913 8.75871 8.54143 8.63975 8.5399C8.52079 8.53837 8.40334 8.51304 8.29432 8.46539C8.18531 8.41775 8.08693 8.34876 8.005 8.2625L8.0025 8.26ZM15.1087 4.58V0.89125C15.1087 0.654876 15.2026 0.428183 15.3698 0.261041C15.5369 0.0938993 15.7636 0 16 0C16.2364 0 16.4631 0.0938993 16.6302 0.261041C16.7974 0.428183 16.8913 0.654876 16.8913 0.89125V4.58125C16.8913 4.81762 16.7974 5.04432 16.6302 5.21146C16.4631 5.3786 16.2364 5.4725 16 5.4725C15.7636 5.4725 15.5369 5.3786 15.3698 5.21146C15.2026 5.04432 15.1087 4.81637 15.1087 4.58Z" fill="#A52C17"/>
</g>
<defs>
<clipPath id="clip0_627_148">
<rect width="30" height="30" fill="white"/>
</clipPath>
</defs>
</svg>
