<svg preserveAspectRatio="none" width="100%" height="100%" overflow="visible" style="display: block;" viewBox="0 0 25 25" fill="none" xmlns="http://www.w3.org/2000/svg">
<g id="fontisto:night-clear" clip-path="url(#clip0_627_154)">
<path id="Vector" d="M20.3375 15.3344H20.3458C21.0181 15.3337 21.6729 15.274 22.3104 15.1552L22.2448 15.1656C21.051 19.4594 17.176 22.5594 12.5771 22.5594H12.5167H12.5198C6.95417 22.5531 2.44375 18.0427 2.43854 12.4771C2.45159 10.2874 3.1713 8.15934 4.49056 6.41159C5.80981 4.66384 7.65811 3.38874 9.76042 2.77605L9.83229 2.75834C9.71837 3.38347 9.66188 4.01771 9.66354 4.65314V4.66043C9.66875 10.5542 14.4448 15.3302 20.3375 15.3354V15.3344ZM12.5062 0.489594C12.3823 0.322006 12.2171 0.189328 12.0268 0.104453C11.8364 0.0195779 11.6273 -0.0146073 11.4198 0.00521916H11.425C5.01354 0.620844 0.0354167 5.96251 0 12.475V12.4781C0.00833333 19.3896 5.60938 24.9906 12.5198 25H12.5833C19.0865 25 24.424 20.0146 24.9844 13.6573L24.9875 13.6104C25.0053 13.4126 24.9744 13.2134 24.8976 13.0302C24.8208 12.847 24.7004 12.6854 24.5469 12.5594L24.5448 12.5573C24.3899 12.4294 24.2055 12.3421 24.0083 12.3033C23.8112 12.2646 23.6074 12.2756 23.4156 12.3354L23.424 12.3333L22.8781 12.4958C22.0597 12.7649 21.2032 12.9003 20.3417 12.8969H20.3344C18.1516 12.895 16.0588 12.027 14.5154 10.4836C12.972 8.94014 12.104 6.84734 12.1021 4.66459V4.64584C12.1021 3.57293 12.3083 2.54793 12.6833 1.60939L12.6635 1.66459C12.7401 1.47036 12.7654 1.25972 12.7371 1.05288C12.7088 0.846037 12.6279 0.649926 12.5021 0.483344L12.5042 0.486469L12.5062 0.489594Z" fill="#A52C17"/>
</g>
<defs>
<clipPath id="clip0_627_154">
<rect width="25" height="25" fill="white"/>
</clipPath>
</defs>
</svg>
