<svg preserveAspectRatio="none" width="100%" height="100%" overflow="visible" style="display: block;" viewBox="0 0 418.329 29.8926" fill="none" xmlns="http://www.w3.org/2000/svg">
<path id="Vector 2" d="M16.4658 12.9273C14.1729 13.8635 11.5022 14.8119 8.79119 15.6963C8.8451 15.6687 9.02001 15.6195 9.52031 15.3396C9.57684 15.2588 10.5612 14.9438 11.8706 13.1981C12.5118 12.217 13.2771 11.074 13.3055 8.54542C13.2809 6.06873 11.9677 4.09623 11.0658 3.22757C10.5985 2.75843 10.1907 2.45848 9.85332 2.23597C9.77292 2.18307 9.67435 2.1219 9.6241 2.09182C9.58738 2.06978 9.55153 2.0487 9.51654 2.02852C9.44654 1.98814 9.37993 1.95131 9.31648 1.91741C9.06269 1.78214 8.85905 1.69201 8.69098 1.62346C8.35593 1.48852 8.15849 1.4356 8.03131 1.40255C7.82952 1.3546 7.8348 1.36783 7.84692 1.375C7.92249 1.40126 8.11042 1.44156 8.3551 1.48221C8.62332 1.52551 8.88226 1.56315 9.15942 1.6004C10.3676 1.75525 11.6175 1.87732 12.7788 1.99262C14.3335 2.1333 13.4918 2.53339 14.5197 2.64287C16.602 2.8528 18.4746 2.66104 20.4889 2.86529C21.1766 2.93467 20.315 3.6038 21.0415 3.6609C24.9159 3.96615 28.5902 3.76673 32.5973 3.86244C52.0927 4.31299 71.3774 4.01895 91.2264 3.76001C97.7335 3.67234 105.768 4.04192 112.48 3.57031C113.274 3.51433 112.782 2.93947 112.932 2.88628C115.288 2.07003 114.512 3.28456 116.05 3.39565C122.184 3.83222 128.966 3.67538 134.808 3.26438C137.302 3.08815 134.791 2.00985 137.268 2.56197C137.284 2.56558 137.301 2.56925 137.317 2.57299C137.39 2.58914 137.327 2.70987 137.277 2.84881C137.231 2.97556 137.197 3.11746 137.289 3.20888C137.338 3.25867 137.425 3.2935 137.567 3.30283C139.13 3.4035 142.079 3.20555 143.285 3.22261C145.615 3.25805 146 3.24192 148.197 3.19488C151.205 3.13656 154.787 3.37164 158.011 3.17339C158.699 3.12926 157.777 2.50323 158.872 2.3752C159.97 2.24665 162.882 2.25716 163.865 2.39626C164.844 2.53481 164.434 3.04477 164.609 3.15814C166.056 4.11443 169.403 2.7294 169.831 2.69336C177.74 2.06006 184.498 2.83312 191.94 2.95226C197.541 3.04915 203.533 2.95625 208.978 3.40263C209.022 3.40632 209.066 3.41007 209.11 3.41388C210.103 3.50497 210.756 3.5805 211.817 3.78154C212.052 3.82807 212.278 3.87815 212.499 3.93272C212.693 3.98044 213.06 4.07805 213.329 4.16768C213.62 4.26337 213.883 4.3614 214.195 4.50409C214.616 4.69745 215.051 4.9374 215.509 5.32538C215.924 5.6364 216.884 6.76527 216.985 8.0267C217.152 9.27848 216.566 10.4393 216.269 10.8462C215.95 11.3147 215.621 11.6429 215.299 11.9241C215.062 12.1283 214.825 12.3052 214.583 12.47C213.643 13.0989 212.865 13.4521 212.133 13.7822C209.065 15.105 206.335 15.9083 203.302 16.9032C202.668 17.106 203.641 17.5948 202.859 17.845C194.589 20.4489 186.336 22.3675 177.903 23.6906C177.066 23.8183 177.988 22.9417 177.148 23.0293C173.207 23.4544 167.632 23.7438 163.811 25.0555C162.308 25.5157 161.597 26.0612 160.76 26.8822C160.253 26.9244 159.8 26.9583 159.408 26.9817C159.356 26.9849 159.32 26.9866 159.255 26.9908C159.171 26.997 159.089 27.0027 159.011 27.0079C158.854 27.0182 158.709 27.0266 158.574 27.033C158.439 27.0394 158.313 27.044 158.192 27.0465C158.123 27.048 158.098 27.0475 157.985 27.0495C157.862 27.0523 157.741 27.0547 157.555 27.047C157.46 27.0423 157.35 27.0366 157.173 27.0133C156.987 26.981 156.77 26.9743 156.22 26.7553C155.943 26.6309 155.544 26.4638 155.014 25.9297C154.49 25.4372 153.888 24.2515 154.012 23.1315C154.373 20.8823 155.45 20.6297 155.568 20.444C155.973 20.1749 156.151 20.1192 156.302 20.0544C156.586 19.9454 156.713 19.9174 156.851 19.8811C157.101 19.8183 157.382 19.7647 157.44 19.7573C157.66 19.7208 157.905 19.6829 158.187 19.641C158.326 19.6204 158.483 19.5971 158.63 19.5764C158.732 19.5639 158.838 19.551 158.948 19.5378C159.167 19.5116 159.401 19.4842 159.649 19.4559C161.611 19.2349 163.444 19.1211 165.045 19.1631C167.221 19.2019 165.31 20.2293 167.679 19.5512C168.224 19.3982 167.401 18.8849 168.234 18.7014C171.714 17.9344 175.554 17.5738 178.998 16.7438C179.681 16.5762 179.412 16.0429 179.594 15.9134C181.155 14.8522 184.171 15.8006 184.772 15.8158C189.584 15.8796 192.882 15.1273 197.199 14.5547C198.212 14.4208 196.911 13.8306 197.884 13.6746C202.86 12.8857 208.084 12.2561 213.034 11.9538C214.133 11.8887 213.215 12.6614 213.745 12.6632C216.078 12.6642 216.459 11.3812 218.684 11.3641C219.155 11.3588 218.963 11.9424 219.056 11.9921C220.501 12.7724 221.487 11.2823 221.826 11.2095C226.106 10.26 229.036 11.3251 233.196 10.6234C233.693 10.5384 232.482 9.97624 233.884 9.77986C243.234 8.46806 253.156 7.55266 262.549 7.21612C264.01 7.16344 263.023 7.78735 263.121 7.84328C264.702 8.71311 265.514 7.27232 265.973 7.17883C269.724 6.46467 273.279 7.31981 275.672 5.51776C280.316 5.34007 284.837 5.09878 289.445 5.01141C300.578 4.79643 311.748 4.12948 322.933 4.87586C323.132 4.88762 322.793 5.5667 323.19 5.58734C327.99 5.85136 327.043 4.83191 330.212 3.51517C331.023 3.18333 333.472 4.71617 333.69 4.83342C334.462 5.25315 333.655 6.24581 333.912 6.32774C335.078 6.67408 335.528 5.89404 336.144 5.10095C336.713 4.41768 337.38 3.71581 338.802 3.79081C338.893 3.80133 338.473 4.38624 338.717 4.45999C339.503 4.69366 340.308 4.51022 341.098 4.81512C342.005 5.18195 342.558 5.76635 343.3 6.44573C343.492 6.64821 343.741 6.78834 343.972 7.31894C344.082 7.58904 344.034 7.96389 343.916 8.16283C343.806 8.36516 343.683 8.48312 343.563 8.59596C343.107 8.99096 342.668 9.29831 342.144 9.81814C341.9 10.0497 343.103 11.5738 340.647 12.5315C340.613 12.5444 340.578 12.5571 340.543 12.5697C339.539 12.9654 335.051 14.5565 333.735 14.7875C332.429 15.0483 333.133 14.211 333.034 14.2133C329.415 14.4136 330.617 13.7205 328.641 13.0152C326.686 12.2842 327.801 14.8937 327.169 15.3629C326.535 15.8372 323.866 15.7209 323.207 15.6052C322.547 15.4972 323.246 14.9758 322.674 14.9514C318.896 14.7662 321.313 16.6052 320.169 17.2501C317.436 18.7516 314.897 16.9684 312.269 17.02C311.553 17.0326 312.178 17.4499 311.547 17.5522C309.038 17.9407 307.491 17.3971 304.647 18.1095C304.187 18.2278 301.883 19.5488 300.352 18.6365C300.138 18.5052 300.739 17.985 299.665 17.873C298.06 17.7088 295.18 17.5389 293.447 17.6275C292.167 17.6945 293.585 18.6214 291.991 18.2717C291.288 18.1125 292.634 17.6912 291.306 17.4311C289.995 17.1818 286.597 16.9058 285.311 16.7558C284.04 16.6189 284.648 17.3447 284.544 17.3763C284.299 17.4363 283.811 17.4723 283.295 17.489C282.739 17.4909 282.204 17.4685 281.807 17.4352C281.286 17.3764 280.933 17.3013 280.853 17.2767C280.755 17.2471 280.658 17.2162 280.563 17.1836C280.428 17.1369 280.294 17.0859 280.163 17.0302C280.032 16.9743 279.903 16.9133 279.774 16.844C279.71 16.8094 279.645 16.7726 279.581 16.7331C279.523 16.6976 279.437 16.6438 279.332 16.5664C279.131 16.4187 278.926 16.2357 278.734 15.9868C278.639 15.8625 278.549 15.7215 278.471 15.5638C278.374 15.3698 278.291 15.1304 278.25 14.8886C278.158 14.4085 278.262 13.8634 278.392 13.5565C278.509 13.2638 278.658 13.0337 278.809 12.843C279.903 11.6602 280.571 11.554 281.28 11.1968C282.696 10.5994 284.007 10.223 285.336 9.86429C287.982 9.16583 290.596 8.65325 293.196 8.17204C298.399 7.22071 303.559 6.41713 308.818 5.33367C309.653 5.16429 308.98 4.58563 309.106 4.55284C311.89 3.79932 309.969 5.95692 312.04 6.23654C311.531 4.91584 312.75 4.967 314.742 4.51875C315.696 4.30446 315.093 3.85037 315.174 3.78292C316.519 2.76491 317.682 3.68185 317.962 3.86474C319.021 4.53311 319.968 3.48992 320.739 3.98622C321.286 4.39509 320.462 5.01136 321.077 5.20044C321.26 5.24746 321.538 5.2731 321.907 5.27591C322.46 4.78883 321.026 3.46648 322.51 3.28516C322.592 3.27517 322.675 3.26593 322.756 3.25747C322.869 3.25019 322.986 3.24429 323.097 3.23944C323.32 3.2298 323.534 3.22482 323.738 3.22554C323.84 3.22592 323.939 3.22774 324.037 3.2313C324.193 3.24186 324.359 3.25815 324.517 3.28086C324.676 3.30415 324.836 3.33349 325.015 3.38408C325.062 3.39769 325.099 3.40827 325.162 3.43003C325.278 3.47267 325.406 3.52601 325.555 3.61022C325.829 3.77518 326.327 4.08782 326.571 4.88709C326.799 5.75303 326.478 6.36453 326.245 6.69552C325.997 7.03223 325.787 7.18025 325.609 7.3061C325.564 7.33665 325.521 7.36448 325.479 7.39047C325.453 7.40676 325.438 7.41615 325.417 7.42845C325.379 7.45182 325.341 7.47384 325.303 7.49488C325.228 7.53695 325.154 7.57519 325.08 7.61143C324.932 7.68374 324.783 7.74836 324.625 7.811C324.448 7.87977 324.391 7.90187 324.268 7.94637C324.044 8.02677 323.801 8.10555 323.534 8.18465C323.268 8.26293 323.097 8.31085 322.856 8.37394C320.999 8.85517 318.975 9.1814 317.096 9.43365C313.213 9.95381 309.514 10.2044 307.268 10.4669C302.806 10.9777 301.407 11.2318 298.778 11.3698C294.079 11.5904 295.886 12.3479 293.027 13.1008C290.138 13.8438 291.329 11.3389 290.856 10.8765C290.396 10.4118 290.001 10.9774 289.463 10.7492C288.927 10.5205 289.994 10.0692 288.788 10.0807C287.582 10.0956 284.398 11.2859 284.01 11.849C283.203 13.0455 284.781 14.1098 281.559 13.9463C281.375 13.9357 281.921 13.2698 281.216 13.2605C275.593 13.2033 269.8 13.4894 264.2 13.0793C263.423 13.0203 264.117 12.3281 263.668 12.2853C259.038 11.7891 260.749 12.9754 258.047 14.1546C258.722 12.441 257.345 11.4163 253.963 10.9657C253.396 10.8822 253.034 10.8744 252.756 10.9177C251.918 11.0185 251.763 11.5014 250.734 11.7597C250.315 11.8642 248.874 11.2103 248.574 11.546C247.589 12.6369 248.925 14.0182 245.343 13.2694C245.182 13.2341 245.741 12.6356 245.183 12.5599C244.407 12.4507 243.793 12.4252 243.125 12.3803C242.955 12.366 242.782 12.3555 242.526 12.2975C242.469 12.2847 242.367 12.2552 242.273 12.2186C242.186 12.1829 242.04 12.1308 241.821 11.9573C241.713 11.8615 241.606 11.7905 241.43 11.4915C241.271 11.2276 241.189 10.7847 241.248 10.4721C241.353 9.8538 241.696 9.57718 241.768 9.49442C242.035 9.24954 242.135 9.20535 242.252 9.12696C242.382 9.0493 242.431 9.01605 242.518 8.96663C242.694 8.86903 242.784 8.81013 242.929 8.73275C243.968 8.08363 244.896 7.34504 247.01 6.65921C249.933 5.69411 255.392 5.13343 258.808 4.58262C259.127 6.49245 262.208 5.43387 263.281 3.89348C265.502 3.55401 267.884 3.09998 270.056 2.97775C270.802 2.93554 270.396 3.56061 270.498 3.60749C272.049 4.35074 272.836 2.93826 273.311 2.8259C278.454 1.67715 282.787 2.26448 287.695 0.951363C287.869 0.905003 288.064 -0.462041 289.467 0.434575C289.557 0.497219 287.949 1.21216 290.298 1.1131C292.643 1.01273 297.096 1.52583 300.322 0.812455C301.109 0.637936 303.074 -0.507488 304.697 0.320285C304.912 0.432649 304.685 0.823159 304.997 1.033C306.001 1.70211 306.525 0.332168 307.702 1.47739C308.889 2.62317 311.297 3.4695 314.563 2.68976C314.664 2.66718 315.45 1.59153 316.483 1.61865C318.12 1.66178 320.465 1.92252 322.165 1.95098C322.992 1.96434 322.477 1.28305 322.621 1.27376C328.163 1.01956 332.083 1.75184 337.983 2.24517C339.049 2.33608 342.214 1.55281 344.287 2.36531C346.535 3.25269 344.057 6.44414 349.385 5.88269C351.178 5.69061 353.555 2.7609 356.472 3.2344C357.027 3.32161 357.574 3.5314 358.129 3.90987C359.49 3.92745 361.12 4.0358 361.961 4.66629C362.115 4.83806 362.111 4.82663 362.022 5.03371C361.917 5.22535 361.682 5.44212 361.429 5.62273C360.913 5.98959 360.296 6.27616 359.672 6.50636C355.623 7.95599 351.331 8.337 346.864 9.15903C346.534 9.21904 345.554 10.4535 344.75 10.4772C344.003 10.4988 343.463 10.296 342.956 10.1441C342.584 10.16 342.468 9.6883 342.802 9.52575C343.112 9.48814 343.418 9.46092 343.714 9.37328C347.112 8.48395 350.22 7.51097 353.558 6.98697C354.832 6.79748 354.472 7.42776 355.998 7.21053C357.51 6.99909 358.402 6.10891 360.511 6.16034C362.111 6.2022 363.861 7.48588 365.936 7.38579C365.817 5.89359 367.24 5.73013 369.706 5.02132C370.178 4.88482 369.598 4.43313 369.817 4.34203C370.706 3.96007 371.637 4.28026 372.481 3.88419C372.689 3.78849 372.638 3.28022 372.805 3.17333C374.216 2.24509 376.825 3.10218 377.276 3.25333C378.98 3.82571 379.668 3.08254 380.954 3.24452C382.231 3.40836 380.418 3.97864 381.882 4.0046C382.368 4.01322 382.879 4.00796 383.408 3.99189L383.397 3.99292C386.144 3.96479 389.288 3.68333 391.868 3.54084C393.093 3.47011 392.215 2.84222 392.389 2.81628C394.917 2.48526 397.519 3.07137 398.856 1.64129C400.798 5.05607 400.369 1.21968 404.034 1.74151C404.324 1.78414 404.766 3.42461 403.684 3.72212C402.598 4.01966 400.911 3.58435 399.411 4.04325C399.052 4.1507 397.082 5.81448 396.805 5.92486C394.653 6.78246 394.198 4.3269 394.072 4.19724C392.662 2.80583 390.249 4.64178 389.599 4.80409C387.402 5.34614 385.425 5.41278 383.536 5.65043L383.58 5.64629C382.896 5.74604 382.231 5.86595 381.581 6.03628C379.944 6.45891 379.979 8.09063 378.672 8.18589C374.38 8.50547 372.58 6.4372 368.795 8.89977C367.99 9.42787 369.067 11.0728 365.798 10.1003C365.608 10.036 363.112 9.08776 361.915 10.0791C361.762 10.2043 361.841 10.7159 361.627 10.7908C360.217 11.281 359.162 11.0222 357.612 11.4662C356.059 11.9115 354.206 12.5178 352.4 12.6707C351.307 12.7627 349.771 12.0845 349.209 11.9621C347.631 11.593 346.403 13.0363 345.421 12.4728C344.394 11.9411 345.602 10.1638 343.293 10.45C343.376 10.6568 343.46 10.8646 343.546 11.072L342.89 8.4295C342.947 7.29575 343.071 6.14186 343.146 5.0092C348.338 4.84716 353.524 4.75936 357.817 3.12871C358.291 2.93871 357.662 2.52173 357.97 2.2739C357.987 2.25638 358.009 2.2406 358.037 2.22681C358.393 2.06054 358.786 1.80033 358.615 1.96188C358.562 2.0191 358.461 2.11005 358.265 2.37933C358.089 2.64736 357.724 3.12233 357.549 4.19094C357.338 5.25524 357.808 6.77756 358.349 7.41358C358.88 8.10007 359.233 8.26822 359.436 8.39086C359.832 8.5888 359.79 8.50326 359.693 8.4666C359.58 8.41615 359.378 8.35691 359.136 8.30856C358.645 8.21014 358.019 8.15402 357.338 8.16404C356.997 8.16846 356.679 8.19363 356.312 8.23133C354.178 8.43398 351.839 8.91578 349.666 8.98966C348.125 7.38696 344.323 7.74594 341.542 7.48791C340.583 7.39896 340.663 6.99096 339.978 6.82831C337.381 6.22526 338.563 7.63521 337.84 7.82007C334.743 8.61214 334.61 5.52394 331.005 5.47597C330.818 5.47182 328.419 7.03711 328.108 7.13104C326.059 7.73799 327.791 6.54989 326.518 6.39275C324.198 6.10844 322.58 5.67767 319.854 6.11231C319.047 6.24097 317.146 7.23698 315.605 6.4343C315.402 6.32911 315.519 5.78762 315.355 5.75462C312.407 5.20682 312.312 6.91605 310.638 7.4956C308.965 8.07533 306.355 6.92925 305.821 6.59974C304.421 5.74387 306.877 6.2089 306.949 6.1236C307.818 5.08944 305.925 5.2852 304.464 5.2266C304.219 3.55838 302.186 3.7032 302.956 5.17434C303.044 5.33451 304.167 5.15521 304.464 5.2266C303.218 6.88906 301.01 7.14716 298.502 5.70281C297.325 5.02954 298.378 4.14055 294.883 4.59976C293.296 4.81363 293.967 5.93257 292.584 6.31916C289.439 7.20118 285.227 6.42509 281.961 6.90231C280.778 7.07513 281.994 7.59289 281.19 7.73338C279.061 8.11066 277.116 7.84687 274.995 8.35081C274.804 8.3974 275.358 8.99293 274.694 9.08388C269.663 9.79632 265.229 10.0641 260.041 11.0995C257.529 11.5908 253.184 12.9784 250.637 13.6059C248.838 14.0387 246.837 14.4229 244.867 14.8483C244.826 14.852 244.807 14.8504 244.825 14.8343C244.86 14.8081 244.882 14.8063 245.185 14.633C245.293 14.5582 245.616 14.4114 246.151 13.8616C246.415 13.5835 247.154 12.7414 247.348 11.3772C247.668 9.83936 246.612 7.96406 246.146 7.60303C245.668 7.11053 245.295 6.90062 245.03 6.75619C244.843 6.65912 244.701 6.60098 244.586 6.55833C244.343 6.47046 244.284 6.46461 244.206 6.44701C243.974 6.4091 244.093 6.45815 244.179 6.48268C244.282 6.51251 244.422 6.5435 244.572 6.57298C245.192 6.69222 245.92 6.79259 246.635 6.88263C248.066 7.0609 249.483 7.19679 250.787 7.27075C252.44 7.37042 253.041 7.23852 253.477 7.02392C253.697 6.84862 253.861 6.64647 254.276 6.51813C256.112 5.95654 259.631 7.68944 260.114 7.93677C260.149 7.95195 257.964 8.00316 259.113 8.39783C259.775 9.13458 260.084 7.93832 260.114 7.93677C260.398 8.12588 264.798 8.32671 265.654 8.17003C266.122 8.09529 265.851 7.47388 266.096 7.44637C271.966 6.7949 277.847 6.26294 283.898 6.04694C284.005 6.05049 283.904 6.76047 284.156 6.76004C287.674 6.76853 289.826 5.69494 292.648 4.88584C295.457 4.0756 297.737 3.97586 299.594 4.9569C301.717 4.54658 304.923 4.65739 306.732 4.72495C308.562 4.79053 308.624 3.4025 308.771 3.35441C313.423 1.77196 316.581 2.10664 321.103 1.16972C321.258 1.13454 321.369 1.10869 321.552 1.05929C321.726 1.01229 321.877 0.966688 321.976 0.932741C322.054 0.910577 322.2 0.836351 321.94 0.955231C321.908 0.970958 321.87 0.990495 321.824 1.01559C321.769 1.04653 321.757 1.04824 321.578 1.16199C321.286 1.38619 320.722 1.63548 319.956 2.92808C319.598 3.59635 319.235 4.52547 319.327 5.86046C319.42 7.20358 320.098 8.36736 320.676 8.97907C321.267 9.61569 321.749 9.88521 322.087 10.0666C322.258 10.1551 322.399 10.2161 322.518 10.2632C322.65 10.3141 322.635 10.3076 322.688 10.3269C323.32 10.5273 323.19 10.4578 323.106 10.4687C323.006 10.4653 322.819 10.4589 322.565 10.4567C322.155 10.4566 321.698 10.4693 321.099 10.4929C320.969 10.5163 320.143 10.616 319.634 10.7055C318.983 10.8085 318.512 10.8996 317.971 10.9998C315.979 11.3873 314.734 11.2567 312.87 11.7587C312.623 11.8259 312.973 12.3833 312.9 12.4186C310.908 13.4758 311.682 11.8513 311.207 11.6608C309.485 10.9742 308.391 10.6369 305.782 11.571C305.173 11.7866 303.758 14.2198 302.665 14.5607C301.237 15.0019 301.636 14.143 300.147 14.6321C300.019 14.6739 300.144 15.1282 299.197 15.3025C294.879 16.1137 289.906 16.9362 286.09 18.2656C285.583 18.448 286.456 18.9305 285.774 19.1967C285.385 19.3521 284.962 19.5416 284.812 19.6278C284.748 19.6593 284.698 19.713 284.973 19.5259C285.041 19.4778 285.127 19.4131 285.236 19.3223C285.355 19.2188 285.434 19.1591 285.692 18.8889C285.919 18.6439 286.199 18.3083 286.492 17.8098C286.776 17.293 287.096 16.7338 287.308 15.4929C287.499 14.3469 287.328 12.9455 286.865 11.8775C286.435 10.8849 286.022 10.3844 285.602 9.92156C285.189 9.48349 284.826 9.21082 284.54 9.02005C284.334 8.8844 284.194 8.80728 284.063 8.73893C283.538 8.48042 283.52 8.51838 283.543 8.51965C283.672 8.56156 284.013 8.64333 284.528 8.72974C286.35 9.03255 288.216 9.31687 289.992 9.61317C290.977 9.77698 290.318 10.2517 290.522 10.4231C291.776 11.462 293.773 10.1898 294.064 10.1736C301.474 9.78966 307.262 10.8207 314.727 9.35185C315.149 9.27411 318.031 7.4007 319.608 8.39548C319.71 8.46385 321.319 9.49431 322.362 8.39259C322.425 8.32335 321.456 7.84231 322.94 7.6152C324.43 7.3856 326.659 6.42799 328.818 6.59261C329.493 6.64718 331.363 7.46541 332.903 5.8922C333.031 5.78735 335.022 2.6644 336.539 3.76907C336.697 3.88378 336.929 4.57141 337.531 4.66204C337.884 4.71681 338.407 4.54949 338.929 3.96243C339.053 3.81444 338.929 3.72075 338.871 3.58884C338.796 3.46297 338.858 3.27132 339.066 3.03407C339.132 2.95034 339.175 2.88169 339.062 2.92607C339.004 2.95165 338.906 2.99926 338.679 3.18157C338.564 3.27708 338.432 3.38789 338.218 3.6171C338.114 3.72997 338.008 3.85205 337.876 4.0256C337.733 4.21463 337.577 4.44352 337.42 4.72814C337.115 5.2858 336.674 6.25036 336.643 7.65724C336.596 9.06018 337.148 10.5191 337.738 11.3511C338.945 12.9844 339.614 13.1075 339.952 13.3353C340.649 13.668 340.658 13.6103 340.652 13.6288C340.422 13.5919 339.213 13.5364 338.212 13.8644C337.948 13.9496 336.96 14.5833 335.927 14.5091C335.612 14.4851 335.271 14.3868 334.948 14.1709C334.746 14.0323 335.148 13.4731 334.449 13.4024C331.076 13.07 327.429 13.5167 323.889 13.2119C322.634 13.1063 323.253 12.1792 321.933 11.97C320.613 11.7607 317.96 11.6049 316.596 12.0651C315.229 12.5253 316.783 13.9278 314.724 14.1106C306.402 14.8481 298.082 14.4797 289.63 14.4547C289.068 14.4505 288.483 14.4533 287.877 14.4638C286.584 14.4898 287.673 14.9667 285.742 15.0555C278.836 15.3586 266.447 16.9454 260.153 16.4795C255.102 16.1003 261.293 14.7975 257.447 14.8261C255.558 14.8465 253.779 16.7322 253.339 16.8326C249.041 17.8339 245.977 17.4247 242.092 18.1011C241.295 18.2408 242.161 18.8297 241.481 18.9412C239.16 19.3285 236.652 19.3167 234.429 19.6394C233.429 19.7861 233.676 20.2827 232.748 20.354C230.525 20.5316 228.548 20.5528 226.335 20.334C226.133 20.3141 227.376 19.5048 225.739 19.6837C223.083 19.9764 219.752 19.9106 216.759 20.7992C215.873 21.0647 215.987 22.2534 213.947 21.6869C213.517 21.5692 213.857 20.0783 211.757 21.6023C211.39 21.8574 207.817 24.0135 205.824 23.1941C205.288 22.9795 203.866 21.9862 202.808 22.315C202.665 22.3639 203.338 22.9203 202.45 23.1032C199.344 23.7337 196.008 24.1215 192.75 24.778C191.885 24.954 193.274 25.4304 191.985 25.6714C188.526 26.3229 183.977 26.7988 180.488 27.0962C179.229 27.2005 180.012 26.5311 179.913 26.4851C178.298 25.7365 177.531 27.1772 177.062 27.3237C174.123 28.2204 171.671 27.9635 168.777 28.5743C168.021 28.7348 168.657 29.2704 168.514 29.349C167.056 30.1274 168.071 28.8313 166.982 28.8758C166.213 28.9074 165.473 28.961 164.782 29.0281C164.028 29.1049 163.181 29.2187 162.514 29.3196C162.222 29.3629 161.728 29.4446 161.37 29.5075C160.984 29.5753 160.712 29.6268 160.356 29.6977C159.932 29.7812 159.65 29.8451 159.504 29.8867C159.467 29.8946 159.459 29.9113 159.807 29.8034C160.014 29.7199 160.217 29.7194 161.148 29.1823C161.27 29.1079 161.408 29.0191 161.567 28.9045C161.768 28.7591 162.192 28.4426 162.649 27.9331C163.105 27.4127 163.734 26.6123 164.131 25.2211C164.55 23.8615 164.414 21.8532 163.699 20.472C162.152 17.6649 160.635 17.4245 159.988 17.0882C159.267 16.827 158.915 16.7852 158.642 16.7381C158.122 16.6649 157.953 16.6734 157.817 16.6676C157.691 16.6656 157.641 16.6674 157.618 16.6674C157.602 16.6668 157.606 16.6656 157.61 16.6641C157.62 16.6612 157.654 16.6567 157.703 16.6506C158.58 16.5455 157.487 15.9141 158.339 15.8153C158.605 15.781 158.927 15.74 159.304 15.6921C159.493 15.6682 159.695 15.6426 159.911 15.6152C160.076 15.5937 160.218 15.5748 160.381 15.5536C161.021 15.4699 161.764 15.3751 162.611 15.2691C166.278 14.7741 170.701 13.9879 174.752 13.4346C175.779 13.2926 175.26 13.9759 175.498 14.0556C177.144 14.6165 179.024 12.9445 179.495 12.7171C181.603 11.6909 182.586 11.9664 184.534 11.4018C189.279 10.0137 194.623 8.59569 199.716 7.08126C202.24 6.32694 204.768 5.52887 206.799 4.72551C207.258 4.54559 207.787 4.3157 208.097 4.16835C208.289 4.07669 208.427 4.00452 208.496 3.96935C208.573 3.93194 208.57 3.92629 208.392 4.08555C208.307 4.16397 208.094 4.35588 207.828 4.69611C207.693 4.8689 207.54 5.0859 207.379 5.36621C207.165 5.73794 206.915 6.26836 206.748 6.93736C206.367 8.25496 206.585 10.2988 207.354 11.5885C207.714 12.2417 208.137 12.733 208.489 13.0688C208.738 13.3059 208.966 13.4821 209.162 13.6184C209.555 13.8886 209.833 14.0121 209.988 14.0765C210.104 14.1226 210.173 14.1424 210.206 14.1497C210.274 14.1636 210.172 14.1264 210.071 14.1003C209.647 13.9923 208.993 13.8875 208.163 13.8C197.649 12.8088 188.509 12.3593 177.705 12.4673C176.954 12.4766 177.711 13.2193 177.067 13.2369C168.783 13.4337 160.591 13.2548 152.269 13.6497C151.584 13.681 152.587 14.3644 151.488 14.4386C149.249 14.5954 146.391 14.6278 144.116 14.4648C143.002 14.3867 144.476 13.7409 143.355 13.6748C141.501 13.5645 139.551 13.55 137.616 13.6236C136.822 13.6538 136.035 13.6975 135.26 13.7544C134.114 13.84 135.866 14.5067 134.377 14.5617C124.269 14.9502 114.341 15.382 104.089 14.7548C103.385 14.7117 102.724 13.2649 101.255 13.5899C101.156 13.9999 101.176 14.4781 101.14 14.9142C86.3869 15.5862 71.8535 15.4925 57.0417 15.7603C56.4292 15.7714 57.5043 16.5235 56.3209 16.5487C49.331 16.6974 42.5441 17.0528 35.3364 16.3818C34.6231 16.3158 34.9476 14.9459 32.897 15.178C32.5484 15.221 29.3213 15.4374 28.5685 15.7388C28.4544 15.7844 29.0551 16.4176 28.0023 16.4444C22.0224 16.5727 15.889 16.4802 9.67088 15.7905C8.70179 15.6707 9.77186 15.0529 9.09091 14.9604C8.591 14.8975 8.11973 14.8379 7.67469 14.7791C7.22514 14.7204 6.61331 14.6422 6.12848 14.5623C5.85149 14.5183 5.45988 14.451 5.11715 14.3751C5.02835 14.3556 4.93845 14.3349 4.8466 14.3125C4.74941 14.2884 4.68403 14.2727 4.49985 14.2219C4.17909 14.1307 3.82973 14.0223 3.36624 13.811C3.25 13.7575 3.12608 13.6964 2.99227 13.624C2.84269 13.5382 2.78304 13.5213 2.36983 13.2369C1.72871 12.7655 0.547257 11.8072 0.104407 9.78072C-0.282298 7.55668 0.490295 6.27251 1.03341 5.46221C1.62141 4.65791 2.12849 4.29462 2.52201 4.01806C2.61578 3.95401 2.73485 3.87899 2.78793 3.84691C2.83293 3.81948 2.8768 3.79347 2.91967 3.76865C3.0054 3.71903 3.08711 3.67419 3.16565 3.63281C3.32269 3.55015 3.46721 3.48108 3.60437 3.41945C3.87832 3.29673 4.12413 3.20253 4.36444 3.11758C7.38661 2.04914 10.4017 0.892342 13.3103 0.264515C16.31 -0.383918 15.6589 1.1016 17.5749 1.62939C17.8485 1.70349 19.6221 1.07183 19.9518 1.66484C20.7855 3.15813 20.5637 5.21843 21.5555 6.77156C21.7567 7.11505 24.0682 5.78405 22.9434 7.21883C22.8538 7.32224 21.2119 8.27002 20.8944 8.72539C20.6708 9.04271 21.4496 9.48387 20.9336 9.97485C20.4207 10.4641 19.5413 10.1767 18.6482 10.8546C17.75 11.5376 18.46 12.1092 16.4658 12.9273ZM314.956 4.91044C316.724 5.26684 316.552 2.86648 314.863 3.7424C314.786 3.7865 314.868 4.89281 314.956 4.91044ZM353.57 6.21504C355.864 6.83549 356.793 4.92066 355.226 4.50275C353.708 4.04598 352.896 6.01436 353.57 6.21504ZM354.595 8.94133C351.922 8.55576 352.143 11.9647 354.689 10.827C354.838 10.7625 354.753 8.96386 354.595 8.94133ZM10.61 4.50292C10.6432 4.52501 11.938 4.09422 11.9538 4.05485C12.3792 3.09524 9.79654 3.95516 10.61 4.50292ZM376.884 5.05513C376.031 4.68907 373.795 5.48519 374.854 5.93562C375.71 6.29629 377.943 5.50921 376.884 5.05513ZM312.087 15.8642C312.117 15.898 313.093 15.833 313.051 15.6338C312.921 14.9964 311.592 15.3097 312.087 15.8642ZM415.288 2.46376C409.591 2.62187 406.01 -0.0124228 412.214 4.41074e-05C413.339 0.00175643 409.84 1.0121 411.282 1.194C413.922 1.52453 415.557 -0.319333 418.278 0.483931C418.766 0.631864 415.615 2.46136 415.278 2.46817C415.281 2.4667 415.285 2.46523 415.288 2.46376ZM316.407 7.57535C316.458 7.59988 317.782 7.39095 317.795 7.35515C318.364 6.48 315.722 6.89726 316.407 7.57535ZM319.324 5.63006C319.243 5.56407 316.105 5.5975 316.002 5.66373C314.404 6.95571 320.754 6.89127 319.324 5.63006ZM258.872 4.62252C260.18 3.57616 261.94 3.1548 263.275 3.8937C261.81 4.10194 260.341 4.3728 258.872 4.62252Z" fill="#A52C17"/>
</svg>
