<svg preserveAspectRatio="none" width="100%" height="100%" overflow="visible" style="display: block;" viewBox="0 0 93.2687 72.4167" fill="none" xmlns="http://www.w3.org/2000/svg">
<g id="Group">
<path id="Vector" d="M12.7937 30.9877C13.2291 30.5811 13.3374 30.1474 13.4575 29.7122C13.6078 29.1678 13.7622 28.6227 13.9641 28.0872C14.3345 27.1047 15.007 26.235 15.9878 25.4895C16.7469 24.9124 17.6084 24.4383 18.6841 24.2082C19.1617 24.106 19.4831 23.9286 19.7426 23.6193C20.1136 23.1771 20.8296 22.9997 21.3679 22.6818C21.7699 22.4444 21.9437 22.1525 21.8326 21.7998C21.4178 20.4834 21.4881 19.1477 21.4975 17.8149C21.5117 15.8137 21.5549 13.8125 21.5606 11.8113C21.5649 10.3046 21.8858 8.82704 22.2723 7.33374C22.192 7.11063 21.8655 7.05461 21.6211 6.92834C20.9915 6.60312 20.8985 6.33946 21.1938 5.78113C21.2757 5.62616 21.3716 5.47487 21.49 5.27243C21.1626 4.80166 20.8271 4.30468 20.4731 3.81449C20.0681 3.25365 19.9502 2.6524 19.9747 2.03541C19.9915 1.61124 20.3155 1.30163 20.8377 1.11203C21.1141 1.01163 21.4109 0.919138 21.7131 0.878783C22.8627 0.725391 24.0134 0.566667 25.1731 0.462914C26.5651 0.338357 27.9768 0.372393 29.3702 0.208797C29.8073 0.157513 30.2898 0.281148 30.7468 0.342109C31.6103 0.457384 32.358 0.749223 33.0379 1.13639C33.5492 1.4275 33.8872 1.80822 33.9501 2.26418C34.0717 3.14661 34.1788 4.02489 33.8933 4.91588C33.5985 5.83557 33.441 6.77692 32.8579 7.64066C32.6507 7.9475 32.6042 8.27292 32.637 8.61426C32.867 11.002 32.7399 13.392 32.7199 15.7815C32.7102 16.9482 32.716 18.1165 32.7947 19.2812C32.8318 19.8306 33.0186 20.3805 33.2077 20.9176C33.4067 21.4828 33.9133 21.9073 34.6559 22.1611C35.2178 22.3532 35.7968 22.5216 36.3777 22.6834C37.3266 22.9476 38.2207 23.2797 39.0819 23.6692C40.1035 24.1312 40.8724 24.7388 41.3664 25.5195C42.11 26.6942 42.6279 27.9056 42.6052 29.2157C42.56 31.828 42.5416 34.4406 42.5107 37.0531C42.5087 37.2197 42.517 37.3882 42.4855 37.5525C42.1904 39.0927 41.8904 40.6324 41.5859 42.1716C41.5086 42.562 41.2797 42.9134 41.001 43.251C40.8477 43.4365 40.4274 43.5025 40.1906 43.355C39.9569 43.2095 39.7599 43.0319 39.5131 42.9005C39.4185 42.8501 39.1813 42.8439 39.0931 42.8934C38.4691 43.2433 38.047 43.7112 37.6971 44.2101C37.6411 44.2899 37.662 44.441 37.7356 44.5142C37.9151 44.6928 38.1543 44.8403 38.3552 45.0089C38.8594 45.432 39.3826 45.8456 39.8484 46.2896C40.4369 46.8505 40.6163 47.4709 40.3856 48.1773C40.209 48.7181 40.0336 49.2552 39.8076 49.7882C38.7443 52.2969 38.6567 52.5146 38.8571 55.3644C38.8884 55.8084 38.9523 56.2519 38.9611 56.696C38.9782 57.5528 38.6619 58.3419 37.9441 59.0411C37.7103 59.2689 37.2454 59.3429 36.9176 59.1999C36.5341 59.0326 36.2416 58.7487 35.7486 58.7092C35.6291 59.1684 35.5715 59.6168 35.392 60.039C34.7112 61.64 33.3608 62.9019 31.4313 63.849C31.1125 64.0054 30.7559 64.1258 30.4052 64.2459C29.5069 64.5538 28.6112 64.6005 27.723 64.214C27.5939 64.1578 27.4301 64.1423 27.1948 64.0876C26.3827 64.2883 25.5016 64.5071 24.6192 64.7236C24.049 64.8636 23.5461 64.7704 23.0997 64.4927C22.7533 64.2772 22.4064 64.0621 22.0829 63.8611C21.683 63.8596 21.5072 64.0588 21.2877 64.2105C20.6902 64.6235 19.9676 64.7912 19.1475 64.7463C16.3052 64.5908 14.0975 63.6788 12.6347 61.9221C12.1581 61.3497 11.7482 60.7473 11.3457 60.1458C10.3915 58.7199 10.0181 57.1923 9.85419 55.6332C9.82524 55.3575 9.81571 55.0709 9.88712 54.8014C10.1347 53.8668 10.0923 52.9206 10.1741 51.979C10.2655 50.927 10.3274 49.8755 10.4912 48.8235C10.7144 47.3906 10.7116 45.9394 10.7834 44.4955C10.7907 44.3498 10.6463 44.2004 10.5444 43.9972C10.1539 44.2556 9.82607 44.4864 9.47698 44.6995C9.12159 44.9165 8.73901 45.1107 8.37956 45.3246C7.83038 45.6513 7.2 45.876 6.52669 46.0218C5.76051 46.1878 4.99803 46.1661 4.24675 45.9146C3.01039 45.5006 2.03868 44.9107 1.33207 44.0589C0.389036 42.9222 -0.0876173 41.7168 0.0133002 40.4054C0.0776802 39.5679 0.314388 38.7516 0.948013 38.0231C1.32856 37.5857 1.84378 37.2559 2.5416 37.088C4.19153 36.6911 5.86596 36.5301 7.60311 36.7541C8.39315 36.856 9.0598 37.1395 9.76336 37.3749C10.1667 37.5098 10.5054 37.3416 10.5252 36.9983C10.5348 36.8317 10.5448 36.6651 10.5451 36.4984C10.547 35.2752 10.5437 34.0521 10.5487 32.8291C10.5501 32.496 10.5646 32.1625 10.5904 31.8299C10.6163 31.4963 10.968 31.227 11.4753 31.1533C11.9285 31.0873 12.3862 31.0382 12.7937 30.9877ZM19.4895 31.2017C19.0301 30.7866 18.5546 30.3498 18.0654 29.9209C17.9635 29.8316 17.801 29.8612 17.7028 29.9878C17.5532 30.1807 17.4175 30.3801 17.2947 30.5825C16.9238 31.1936 16.5769 31.8124 16.1903 32.4185C15.9916 32.7301 15.6477 32.9341 15.1704 33.0571C14.6897 33.181 14.5067 33.3937 14.5968 33.6703C14.8286 34.3822 14.7928 35.1071 14.8374 35.8265C14.903 36.8809 14.9616 37.938 14.9301 38.9925C14.8821 40.6011 14.935 42.2132 14.5601 43.8134C14.4072 44.4663 14.411 45.1433 14.4205 45.8088C14.444 47.4755 14.5093 49.1419 14.5636 50.8083C14.5727 51.0854 14.5655 51.3689 14.6462 51.6373C14.812 52.1882 14.7912 52.7424 14.7912 53.2975C14.7914 54.9094 14.8075 56.5216 14.7769 58.1333C14.7589 59.0858 15.3346 59.8573 16.1542 60.545C16.7737 61.0647 17.5977 61.3832 18.565 61.4894C18.9798 61.535 19.4144 61.3918 19.5078 61.1368C19.6844 60.654 19.9177 60.1724 19.9853 59.6805C20.1827 58.2444 20.3528 56.805 20.4522 55.364C20.5402 54.0882 20.5388 52.8085 20.5413 51.5306C20.5451 49.5298 20.5582 47.5283 20.4944 45.5284C20.4289 43.4761 20.4854 41.4214 20.1834 39.3721C20.0373 38.381 20.1175 37.3737 20.0746 36.3741C20.0032 34.7099 20.0663 33.0383 19.4895 31.2017ZM20.1186 27.8043C20.1376 27.9061 20.1357 28.0211 20.1834 28.1246C20.2809 28.3367 20.4059 28.5829 20.7247 28.6332C21.5947 28.7705 22.2959 29.0882 22.9261 29.52C23.2216 29.7224 23.6222 29.7684 24.019 29.7487C24.4067 29.7294 24.7903 29.6713 25.1776 29.6442C26.0299 29.5847 26.8826 29.524 27.7371 29.484C28.2102 29.4618 28.669 29.541 29.0939 29.6963C29.3706 29.7974 29.6559 29.8917 29.9105 30.0169C30.338 30.2271 30.7963 30.2323 31.2505 30.1227C32.0608 29.9272 32.8861 29.7452 33.6528 29.4805C34.7809 29.0911 35.7935 28.5714 36.5886 27.8631C36.7944 27.6799 36.7537 27.429 36.4877 27.2828C35.0918 26.5155 33.5574 26.0216 31.751 26.0567C31.283 26.0658 27.6944 26.126 26.3687 26.1614C25.8231 26.176 25.268 26.172 24.7361 26.2454C23.9566 26.3529 23.2041 26.3682 22.4211 26.2465C22.0622 26.1908 21.6528 26.2728 21.2731 26.3203C20.8608 26.3718 20.6056 26.5705 20.4186 26.834C20.2016 27.1398 20.0854 27.4545 20.1186 27.8043ZM24.2571 17.9466C24.2686 18.9074 24.1971 20.0115 23.9546 21.1077C23.9447 21.1523 24.0038 21.2177 24.0577 21.2521C24.0985 21.2781 24.1911 21.288 24.2455 21.2743C25.109 21.0581 25.653 20.5978 26.0307 20.0339C26.2306 19.7356 26.3944 19.4181 26.5038 19.0971C26.8702 18.022 28.093 14.0228 28.3631 13.1026C28.446 12.8203 28.6326 12.588 28.9875 12.4348C29.2768 12.3099 29.4221 12.1138 29.4257 11.8859C29.4398 10.9997 29.4543 10.1132 29.4276 9.22737C29.4073 8.55567 28.633 8.1109 27.7267 8.20109C27.112 8.26225 25.5708 8.38938 25.4169 8.40254C25.1332 8.42684 24.8555 8.63099 24.82 8.84606C24.7838 9.06595 24.7328 9.28616 24.7266 9.50677C24.6909 10.7804 24.6656 12.0542 24.6386 13.3279C24.628 13.8265 24.7168 14.3372 24.5947 14.8211C24.3455 15.8098 24.3759 16.8071 24.2571 17.9466ZM5.72758 39.6115C5.1341 39.5752 4.53692 39.6874 3.97785 39.8746C3.61534 39.9961 3.38058 40.2434 3.35792 40.529C3.29557 41.3155 3.53256 42.0539 4.20966 42.6949C4.34545 42.8235 4.53859 42.9237 4.71693 43.0269C4.99091 43.1854 5.5164 43.1987 5.80463 43.0479C6.99548 42.4249 8.03333 41.7024 8.70904 40.7491C8.79479 40.6282 8.72523 40.3775 8.55623 40.2985C8.23784 40.1495 7.92825 39.9637 7.57471 39.8862C6.98873 39.7578 6.37092 39.7029 5.72758 39.6115ZM29.503 33.5679C29.167 33.8379 29.0849 34.1085 29.0639 34.3871C29.0138 35.0516 28.9675 35.7165 28.9429 36.3817C28.9039 37.4341 28.9051 38.4871 28.6503 39.5301C28.5981 39.7437 28.6427 39.9694 28.6427 40.3101C28.8977 39.92 29.0954 39.6513 29.2497 39.3704C29.3625 39.1651 29.4092 38.942 29.501 38.7302C30.007 37.5641 30.5589 36.4086 31.2842 35.3016C31.7445 34.5991 32.2643 33.9163 32.7677 33.2284C32.8585 33.1044 32.8791 33.0153 32.7414 32.9486C32.6837 32.9207 32.5943 32.8908 32.5369 32.9031C31.4974 33.1268 30.4606 33.3569 29.503 33.5679ZM28.4473 5.59166C28.7335 5.02951 29.0254 4.46156 29.3115 3.89217C29.4596 3.5975 29.2159 3.36781 28.7243 3.37689C27.4852 3.39974 26.2466 3.43667 25.0086 3.48012C24.8804 3.4846 24.7577 3.57051 24.6326 3.61896C24.6724 3.91423 25.0062 4.09421 25.1854 4.3347C25.4469 4.68533 25.5862 5.04551 25.4116 5.44788C25.3465 5.59791 25.37 5.76743 25.3547 5.91194C25.6955 6.1415 26.0903 6.13544 26.4701 6.09061C27.1589 6.0095 27.8064 5.83116 28.4473 5.59166ZM29.1907 20.318C28.7082 21.0716 28.2281 21.825 27.7432 22.5767C27.5814 22.8275 27.7478 23.0302 28.1051 23.0355C28.8896 23.0472 29.6428 22.9459 30.3674 22.7365C30.4308 22.7181 30.4686 22.6546 30.5548 22.5807C30.1326 21.9491 29.8174 21.2719 29.6853 20.5564C29.6762 20.5075 29.6192 20.4464 29.5596 20.4222C29.4438 20.3751 29.3102 20.3503 29.1907 20.318ZM22.9135 34.2175C22.9647 34.3744 23.0281 34.6421 23.149 34.8959C23.1858 34.973 23.3733 35.0468 23.5052 35.0616C23.9002 35.106 24.2603 34.9968 24.6054 34.8729C24.9876 34.7356 25.1632 34.5048 25.1331 34.2051C25.1228 34.103 25.0917 33.9658 24.9954 33.9101C24.5017 33.6243 23.9173 33.5091 23.2877 33.5606C23.1747 33.5698 23.0458 33.6905 22.9891 33.7804C22.9291 33.8754 22.9467 33.9952 22.9135 34.2175Z" fill="var(--fill-0, #347855)"/>
<path id="Vector_2" d="M42.7413 51.1689C42.956 50.6685 43.1428 50.1883 43.3688 49.7178C43.6436 49.1457 44.1627 48.9648 44.9793 49.0152C45.8179 49.0669 46.4556 49.3175 46.9847 49.7687C48.4883 51.0508 49.9143 52.367 51.0032 53.8587C51.4329 54.4474 51.9702 55.0002 52.5094 55.5438C53.9336 56.9796 55.9036 57.8262 58.3208 58.1142C61.7083 58.5178 65.0477 59.0762 68.3913 59.6245C68.922 59.7115 69.4691 59.7477 69.9996 59.8353C70.3756 59.8974 70.7471 59.9888 71.1017 60.0982C71.9207 60.351 72.2374 60.6618 71.9978 61.447C71.8145 62.048 71.5003 62.6259 70.764 63.0124C70.3766 63.2158 70.0908 63.4717 69.8441 63.7579C69.2874 64.4041 68.4344 64.7887 67.484 65.0692C64.5852 65.925 61.5985 66.063 58.5305 65.6344C53.7111 64.9612 49.6185 63.3257 46.0854 60.9351C45.1756 60.3195 44.3572 59.6479 43.7628 58.8547C43.1754 58.0708 42.5653 57.2931 42.0451 56.4866C41.4561 55.5732 41.0657 54.6087 41.0511 53.5927C41.0447 53.1509 41.0945 52.7037 41.1937 52.2676C41.2838 51.8714 41.5611 51.5431 42.1574 51.4021C42.3708 51.3517 42.5576 51.2441 42.7413 51.1689Z" fill="var(--fill-0, #DE6945)"/>
<path id="Vector_3" d="M77.8471 49.9957C78.4832 50.1731 78.9949 50.2945 79.4779 50.4586C79.7626 50.5553 79.9524 50.7511 80.001 50.9825C80.1871 51.8678 80.1713 52.7578 79.9509 53.6343C79.7449 54.4536 79.4059 55.2547 78.9035 56.0101C78.7409 56.2545 78.4646 56.4617 78.2281 56.6793C78.1879 56.7162 78.0661 56.7484 78.016 56.7315C77.8956 56.6909 77.7359 56.6346 77.6989 56.5583C77.61 56.3751 77.6481 56.1596 77.438 55.949C77.0514 56.233 76.7326 56.4737 76.4039 56.7072C75.3311 57.4693 74.0294 57.9497 72.6034 58.2855C72.0023 58.4271 71.3885 58.4771 70.7651 58.5078C66.5382 58.7156 62.5604 58.0279 58.7395 56.7983C57.3038 56.3363 56.0707 55.6565 54.9241 54.8949C54.0507 54.3148 53.4727 53.5834 52.9978 52.8255C52.6084 52.204 52.6308 51.5223 52.9347 50.869C53.0857 50.5443 53.3898 50.2901 53.8563 50.1602C54.0739 50.0997 54.299 50.0529 54.5162 49.9919C54.9034 49.8833 55.1745 49.7101 55.1771 49.3839C55.178 49.274 55.1939 49.1587 55.2432 49.0555C55.3462 48.8398 55.5286 48.6538 55.8395 48.575C56.2051 48.4823 56.5923 48.4325 56.9564 48.3376C57.8597 48.102 58.6379 48.3108 59.3808 48.659C59.6503 48.7854 59.8226 48.9684 59.8845 49.1954C59.914 49.3037 59.9344 49.4159 59.931 49.5258C59.8923 50.7768 59.7714 50.6358 61.5811 51.15C61.9424 51.2527 62.2964 51.3689 62.6515 51.4824C62.8529 51.5467 62.9419 51.7396 62.8345 51.8953C62.4916 52.3924 62.1368 52.8855 61.7977 53.384C61.6123 53.6567 61.8234 54.0691 62.243 54.2414C62.3668 54.2923 62.5407 54.3217 62.6798 54.3064C63.1593 54.254 63.5445 54.061 63.8819 53.825C64.6058 53.3187 65.2639 52.7721 65.858 52.1849C66.0446 52.0005 66.3541 51.8701 66.6696 51.9142C68.0093 52.1015 69.3006 51.8949 70.5898 51.6957C71.0417 51.626 71.3414 51.7342 71.5995 51.9625C71.9872 52.3054 72.361 52.6563 72.7483 52.9995C72.7881 53.0348 72.8789 53.0539 72.9481 53.0569C73.1287 53.0647 73.242 52.9978 73.3061 52.88C73.5996 52.3405 73.566 51.7922 73.3565 51.2495C73.2292 50.9194 72.9402 50.6514 72.5033 50.4916C72.1586 50.3655 71.8084 50.229 71.4375 50.1602C70.3482 49.9583 70.0639 49.3276 69.815 48.6762C69.7214 48.4312 70.1242 47.9592 70.4994 47.8711C71.0899 47.7324 71.683 47.5908 72.2893 47.4969C72.8969 47.4027 73.5199 47.3488 74.1402 47.3104C74.4417 47.2917 74.7613 47.3233 75.0573 47.3759C76.5619 47.6435 77.518 48.2773 77.6915 49.4204C77.7163 49.5837 77.7779 49.7442 77.8471 49.9957Z" fill="var(--fill-0, #F5C144)"/>
<path id="Vector_4" d="M64.3686 49.0855C64.6184 48.8829 64.8087 48.7424 64.9763 48.5893C65.1772 48.4058 65.1207 48.1548 64.8854 47.9985C64.4161 47.6869 63.9 47.4533 63.2254 47.5239C63.0029 47.5471 62.7835 47.6146 62.5783 47.6851C62.3084 47.7779 62.1554 48.0763 62.2908 48.2499C62.4402 48.4417 62.6263 48.6188 62.7881 48.8059C62.817 48.8393 62.8064 48.8899 62.814 48.9326C62.6732 48.9444 62.5044 48.9966 62.3975 48.9592C62.1989 48.8898 61.9305 48.79 61.879 48.6639C61.7297 48.2982 61.4135 48.1193 60.9169 48.0459C60.7703 48.0243 60.6142 47.9725 60.5046 47.9016C60.3351 47.792 60.1773 47.6646 60.0586 47.5257C59.827 47.2548 59.9902 46.7879 60.3715 46.6515C60.7848 46.5037 61.2044 46.3439 61.6477 46.2645C62.2457 46.1573 62.8682 46.0713 63.4817 46.0663C64.7225 46.0563 65.9494 46.0415 67.1657 45.8168C67.9562 45.6707 68.7032 45.8447 69.359 46.1888C69.6223 46.327 69.7718 46.5268 69.7611 46.7555C69.7482 47.0287 69.7192 47.3077 69.6241 47.5709C69.5284 47.8357 69.3285 48.0804 69.1999 48.3403C68.8693 49.0081 68.2698 49.3003 67.2381 49.1864C66.6335 49.1197 66.0003 49.1924 65.3805 49.1821C65.0763 49.177 64.7737 49.1259 64.3686 49.0855Z" fill="var(--fill-0, #F5C144)"/>
<path id="Vector_5" d="M11.4278 58.4803C11.5351 59.0404 11.8641 59.5444 12.3009 60.0127C12.4161 60.1361 12.55 60.2476 12.7057 60.3381C12.285 59.5411 11.8572 58.7365 11.3333 57.9641C11.365 58.1362 11.3949 58.3084 11.4278 58.4803Z" fill="var(--fill-0, black)"/>
<path id="Vector_6" d="M14.306 62.0763C14.1802 61.8799 14.0078 61.6289 14.0819 61.4499C14.3326 60.8446 13.8746 60.6559 13.1963 60.5233C13.0102 60.4868 12.8489 60.4213 12.7056 60.338C12.9079 60.7213 13.1124 61.1019 13.3318 61.4732C13.2528 61.6942 13.1961 61.8528 13.1412 62.0068C14.0948 62.7019 14.0948 62.7019 15.4074 63.1236C15.4492 63.1089 15.493 63.0936 15.5353 63.0788C15.4716 63.0417 15.4051 63.0079 15.3422 62.9699C14.9228 62.716 14.5363 62.4355 14.306 62.0763Z" fill="var(--fill-0, black)"/>
<path id="Vector_7" d="M39.0082 63.4652C38.8306 63.5082 38.6548 63.5108 38.5913 63.572C38.5161 63.6447 38.4336 63.7076 38.3545 63.775C38.4937 63.9517 38.6499 64.119 38.8367 64.2618C39.2587 64.5848 39.7275 64.8937 40.2447 65.1324C40.8612 65.4169 41.5131 65.6689 42.1802 65.891C40.8532 65.2931 39.7632 64.507 39.0082 63.4652Z" fill="var(--fill-0, black)"/>
<path id="Vector_8" d="M8.41831 44.8197C8.12648 44.8931 7.83936 44.9799 7.56167 45.0775C7.00242 45.2741 6.46268 45.5007 5.89297 45.6799C5.37673 45.8425 4.82876 45.8315 4.28884 45.7073C4.24703 45.6977 4.21058 45.6842 4.16951 45.674C5.06704 46.1509 6.11617 46.4282 7.34411 46.475C8.06894 46.3676 8.74623 46.244 9.35941 45.9788C9.56069 45.8917 9.77362 45.8183 9.98702 45.7456C9.87121 45.5478 9.75762 45.3494 9.62988 45.1557C9.4471 44.8786 8.84122 44.7134 8.41831 44.8197Z" fill="var(--fill-0, black)"/>
<path id="Vector_9" d="M2.6724 44.5668C1.18694 43.0894 0.960871 39.9822 2.87026 38.2682C2.64567 38.3767 2.42764 38.4977 2.21878 38.6358C1.51051 39.1037 1.08121 39.689 0.823416 40.3428C0.453324 41.2814 0.522976 42.2298 0.903798 43.1433C1.40802 44.3525 2.45354 45.2489 4.1696 45.6741C3.61442 45.3791 3.11677 45.0087 2.6724 44.5668Z" fill="var(--fill-0, black)"/>
<path id="Vector_10" d="M5.63305 37.7603C6.25085 37.8062 6.86108 37.9106 7.47111 38.0006C8.4542 38.1456 9.33425 37.942 10.1424 37.5755C10.5423 37.394 10.8094 37.1294 10.9625 36.8262C10.5639 36.9661 10.2462 36.9815 9.81469 36.9185C9.35654 36.8516 8.91171 36.7336 8.45134 36.68C6.15271 36.4128 4.30225 36.9875 2.87618 38.2622C2.87405 38.2642 2.87238 38.2663 2.87026 38.2682C3.68111 37.8763 4.5951 37.683 5.63305 37.7603Z" fill="var(--fill-0, black)"/>
<path id="Vector_11" d="M86.2411 69.8547C85.681 69.6639 85.112 69.4763 84.5225 69.341C83.0301 68.9984 81.4682 68.9167 80.0683 68.7469C79.355 68.942 78.7945 69.1792 78.1974 69.2429C76.423 69.4322 74.6345 69.5557 72.8509 69.6997C72.2302 69.7499 71.6074 69.7875 70.985 69.8268C66.6954 70.0984 62.4109 70.218 58.1415 69.657C56.7538 69.4746 55.3981 69.222 54.1023 68.8241C53.8426 68.7443 53.529 68.6684 53.4744 68.3976C54.162 68.2059 54.8648 68.3179 55.5469 68.3894C58.3382 68.6822 61.1488 68.747 63.9609 68.7477C67.4763 68.7486 70.9856 68.6696 74.4878 68.3867C76.4251 68.2302 78.3754 68.1472 80.3118 67.9635C83.1147 67.6974 85.8256 67.1896 88.4321 66.4179C89.2928 66.163 90.1163 65.8325 90.9173 65.49C91.942 65.0518 92.7412 64.4505 93.2282 63.6566C93.2424 63.6335 93.2553 63.6091 93.2687 63.5855C92.5268 62.4035 91.7563 61.2325 90.8851 60.0991C90.601 60.1078 90.3233 60.1147 90.0569 60.1195C89.1013 59.751 88.1619 59.3589 87.1842 59.0231C86.6266 58.8317 86.0155 58.7078 85.4125 58.5972C84.6579 58.4589 83.8893 58.3566 83.1218 58.2583C82.8997 58.2299 82.6604 58.2691 82.4588 58.2762C82.3251 58.3485 82.3523 58.4318 82.54 58.5042C82.812 58.6092 83.09 58.7115 83.38 58.7864C84.2603 59.0134 85.1615 59.2021 86.0278 59.4527C86.7481 59.6611 87.4508 59.9107 88.1241 60.1878C88.8074 60.4691 89.3585 60.8697 89.7516 61.3632C90.5555 62.3723 90.6688 63.2619 89.2161 64.3993C88.8049 64.7213 88.2555 64.9654 87.7293 65.1997C86.4634 65.7634 85.0704 66.1373 83.6532 66.449C81.1106 67.0086 78.5045 67.3548 75.852 67.5192C72.9749 67.6975 70.1017 67.9229 67.2197 68.041C64.0256 68.1719 60.8226 68.2624 57.6295 67.9725C57.1653 67.9304 56.6963 67.9113 56.2285 67.8942C53.4957 67.7947 50.79 67.5306 48.0977 67.198C46.1693 66.9598 44.2975 66.5629 42.5047 66.0045C42.3948 65.9702 42.2894 65.9275 42.1804 65.8912C42.6262 66.092 43.0985 66.2719 43.5942 66.4328C44.1618 66.6171 44.7359 66.7976 45.3265 66.9383C46.3622 67.1849 47.4083 67.4121 48.4592 67.6246C49.9227 67.9204 50.6145 68.204 51.9972 69.1335C51.8716 69.1755 51.7418 69.2572 51.6206 69.2513C51.3123 69.2363 51.006 69.1883 50.7019 69.1427C48.2547 68.7761 45.7948 68.4551 43.2922 68.3824C41.1856 68.3214 39.0752 68.3213 36.9666 68.305C36.5823 68.3021 36.1307 68.2791 35.903 68.3856C35.3884 68.6264 35.3083 68.972 35.4606 69.3141C35.5926 69.61 35.9935 69.7012 36.3629 69.7838C36.6591 69.8501 36.9684 69.8948 37.2767 69.9235C39.5991 70.1393 41.9226 70.35 44.246 70.5597C45.5627 70.6785 46.8776 70.8121 48.198 70.9048C51.7724 71.156 55.3494 71.3869 58.9248 71.6315C59.3099 71.6578 59.7222 71.6677 60.0668 71.7749C61.172 72.1193 62.3491 72.1367 63.5088 72.1812C68.7364 72.3817 73.9692 72.4497 79.2039 72.4022C80.3742 72.3916 81.5456 72.331 82.7121 72.2582C83.8084 72.1899 84.8646 71.9839 85.8518 71.6293C86.1276 71.5303 86.383 71.3977 86.6293 71.2632C86.9591 71.0831 87.0486 70.6385 86.8548 70.3414C86.7178 70.1319 86.5223 69.9507 86.2411 69.8547Z" fill="var(--fill-0, black)"/>
<path id="Vector_12" d="M82.6946 61.3032C82.3748 61.1625 81.981 60.989 81.5576 60.8028C81.0332 60.4061 80.6568 59.9294 80.5052 59.4315C80.4601 59.0138 80.7465 58.735 80.9472 58.4382C82.2674 56.4843 82.32 54.4796 81.4514 52.4323C81.1568 51.7381 80.7724 51.0713 80.2993 50.4308C79.0135 48.6896 77.0737 47.4503 74.5403 46.6829C72.8777 46.1794 71.1574 45.8415 69.3339 45.789C68.5599 45.7666 67.7689 45.8102 66.9734 45.622C66.8609 45.5026 66.6504 45.3762 66.6187 45.2301C66.3211 43.8529 65.7887 42.5195 65.2085 41.1929C65.1442 41.0457 65.1998 40.8721 65.1998 40.6945C65.3032 40.6694 65.4006 40.6383 65.4956 40.61C65.0785 39.418 64.7878 38.2104 64.4728 36.9999C64.3036 36.8042 64.108 36.6172 63.8952 36.4362C63.2124 36.251 62.5124 36.2799 61.7997 36.4556C61.4458 36.5429 61.1737 36.7863 60.6821 36.7311C60.5891 36.6178 60.4105 36.4894 60.3762 36.3437C60.1545 35.4055 60.1834 34.4617 60.3144 33.5178C60.3757 33.0756 60.4651 32.6337 60.4833 32.1904C60.6166 28.9669 60.7839 25.7434 60.7021 22.5177C60.6837 21.7955 60.6643 21.0696 60.5482 20.3535C60.3861 19.3538 60.0354 18.3856 59.197 17.5437C58.7222 17.0671 58.1303 16.7366 57.3231 16.7485C56.5079 16.8553 55.9802 17.1573 55.6151 17.593C55.7452 17.633 55.8651 17.691 55.9757 17.7565C56.4644 18.0457 56.8275 18.413 57.0389 18.8363C57.2472 19.2532 57.4431 19.6806 57.5465 20.1152C57.913 21.6538 58.0275 23.2062 57.8645 24.7632C57.5515 27.7558 57.4335 30.7535 57.4075 33.7529C57.4065 33.8751 57.4042 33.9966 57.4026 34.1186C57.4983 34.4379 57.5967 34.7569 57.6871 35.0772C57.8567 35.6775 57.9698 36.2843 57.8531 36.8974C57.8344 36.9959 57.7111 37.0842 57.6041 37.2173C57.5295 37.2391 57.4514 37.2535 57.3718 37.2646C57.5818 37.918 57.7015 37.9581 58.2234 38.1216C58.7044 37.8919 59.205 37.633 59.7322 37.4054C60.5643 37.0464 61.7064 37.2239 62.2055 37.8049C62.5294 38.1819 62.761 38.5983 63.059 38.9875C63.3724 39.3969 63.0937 39.9062 63.4113 40.2714C63.7845 40.7008 64.1184 41.1239 64.302 41.6114C64.4635 42.04 64.6731 42.4595 64.831 42.8887C65.0675 43.5327 65.2856 44.1804 65.4928 44.8296C65.5436 44.9887 65.5224 45.1595 65.5323 45.3249C65.5446 45.5308 65.2903 45.7353 64.9483 45.756C64.7986 45.7651 64.6439 45.7325 64.4466 45.7147C64.3421 45.5938 64.1743 45.4662 64.1114 45.3162C63.6428 44.1995 63.202 43.0769 62.7356 41.9598C62.6253 41.6958 62.4692 41.4388 62.2994 41.1908C62.1991 41.0444 62.0401 40.9162 61.8915 40.7891C61.4609 40.4206 60.6185 40.5041 60.333 40.9268C60.1254 41.2342 60.0247 41.5543 60.0066 41.8897C59.9615 42.7239 59.9983 43.5546 60.1796 44.3818C60.3112 44.9824 60.4228 45.5862 60.4104 46.1494C59.847 46.5035 59.8488 46.5068 59.1482 46.6282C58.7969 46.5737 58.625 46.3911 58.5728 46.1639C58.3715 45.2873 58.2162 44.4049 57.9901 43.5319C57.8493 42.9883 57.65 42.4482 57.4014 41.9247C57.283 41.6752 56.9888 41.468 56.8329 41.3036C56.2847 41.1542 55.9653 41.2609 55.7209 41.5196C55.4538 41.802 55.3214 42.1176 55.2461 42.4507C54.8849 44.0465 54.7132 45.6483 54.9204 47.2637C54.9414 47.4274 54.9653 47.5996 54.9162 47.7566C54.8639 47.9236 54.6759 48.0119 54.3347 47.9431C54.1525 47.2073 53.8924 46.4535 53.8308 45.6766C53.6901 43.9017 53.5568 42.1259 53.6601 40.3476C53.689 39.8497 53.77 39.3518 53.8731 38.8587C53.8866 38.794 53.9272 38.7303 53.9771 38.6685C53.6531 38.5098 53.3023 38.3374 52.9501 38.1572C52.5185 38.7287 52.2144 39.3605 51.9948 40.0127C52.0002 40.3902 51.9666 40.7661 51.9152 41.141C51.9631 41.1527 52.0118 41.1652 52.0568 41.1737C52.3495 41.3161 52.4452 41.5206 52.4694 41.7475C52.6053 43.019 52.721 44.2918 52.8805 45.5618C52.9635 46.2232 53.1232 46.8798 53.247 47.5387C53.3186 47.9206 53.4802 48.2985 53.3156 48.8081C52.6625 49.3474 52.041 49.8439 51.4463 50.3562C50.8614 50.8601 50.4833 51.475 49.9044 51.9791C49.4566 51.7685 49.3089 51.5068 49.1213 51.266C48.7059 50.7328 48.3075 50.1923 47.8712 49.6679C47.0098 48.6324 45.8557 47.8399 44.1883 47.488C44.0451 47.4577 43.919 47.3862 43.785 47.3339C43.7405 47.2343 43.6331 47.1238 43.6628 47.0373C43.8851 46.3921 44.1684 45.7569 44.3674 45.1085C44.667 44.1334 44.9047 43.1494 44.9461 42.1467C44.9529 41.9841 45.0258 41.8229 45.0509 41.7271C45.2061 41.4796 45.4363 41.3746 45.6907 41.3096C45.7697 40.0911 45.8959 38.8747 46.0278 37.6585C46.0694 37.1082 46.104 36.5577 46.1195 36.0063C46.1246 35.8201 46.1773 35.6573 46.2503 35.5063C46.3625 34.346 46.4532 33.185 46.4747 32.0214C46.5263 29.2225 46.5397 25.5511 43.4108 23.4881C41.4701 22.2085 37.9635 21.8334 36.7652 20.0668C36.3664 19.4789 36.244 18.8921 36.2767 18.3078C33.7514 12.6319 38.9497 6.18245 36.0324 0.758966C35.8711 0.703995 35.706 0.654357 35.5381 0.61433C34.4917 0.365349 33.4125 0.277 32.3091 0.269561C30.2024 0.255275 28.0951 0.288192 25.9998 0.0322321C24.9679 -0.0939046 23.9925 0.165215 23.1031 0.54751C22.6616 0.737307 22.3431 1.01269 22.1019 1.33211C22.795 1.09992 23.5357 1.04113 24.308 1.14198C24.9954 1.23185 25.6681 1.37846 26.3246 1.49564C26.7328 1.40611 27.1034 1.3248 27.5289 1.23145C29.2573 1.37523 31.0618 1.29281 32.7953 1.48241C33.7715 2.12613 33.896 2.55562 33.294 3.2318C33.1317 3.41422 32.8873 3.55958 32.6582 3.73957C30.9464 3.83134 29.2345 3.92371 27.717 4.52351C27.7278 4.68 27.7348 4.78171 27.7418 4.88342C28.7349 5.0278 28.7349 5.0278 31.8573 4.55452C32.4188 4.65841 32.8146 4.89383 33.0176 5.35716C32.8454 5.49818 32.674 5.68679 32.4405 5.82083C31.7561 6.21365 30.9667 6.4494 30.0841 6.4893C29.2277 6.52801 28.3683 6.53426 27.5118 6.5708C27.0486 6.59055 26.5871 6.63762 26.1271 6.68397C25.8523 6.71168 25.8006 6.80911 25.8068 7.21702C26.203 7.36086 26.608 7.508 26.9573 7.63486C27.2694 8.11393 27.1434 8.56522 27.1215 8.99978C26.9797 11.8336 27.0002 14.6682 26.9963 17.5028C26.9953 18.3933 26.988 19.2832 27.3706 20.1454C27.5407 20.5285 27.4187 20.9173 27.4275 21.304C27.456 22.5574 28.1954 23.5515 29.6436 24.2678C29.7542 24.3224 29.9389 24.3008 30.0893 24.3147C30.7059 23.6613 30.7059 23.6613 30.7936 22.7379C30.5302 22.2061 29.7954 21.8038 29.5977 21.1872C29.4392 20.6934 29.3918 20.2003 29.4111 19.6518C29.4785 19.4817 29.56 19.2675 29.6484 19.0548C30.1153 17.9313 30.3512 16.7887 30.4503 15.6141C30.6377 13.3951 30.8072 11.1779 30.7837 8.95436C30.7814 8.73362 30.8072 8.51084 30.8519 8.29234C30.9042 8.03638 31.142 7.92446 31.5082 7.93934C32.184 8.19938 32.5135 8.62131 32.5239 9.15923C32.5421 10.1039 32.5628 11.0495 32.5231 11.9935C32.481 12.9929 32.3856 13.9919 32.2829 14.9894C32.209 15.7092 32.0633 16.4253 31.9886 17.145C31.8738 18.2527 31.7639 19.3614 31.7064 20.4711C31.6623 21.3198 32.2601 21.9616 33.2134 22.4297C33.6603 22.6491 34.1519 22.8294 34.6467 22.9909C35.5687 23.2919 36.5139 23.5567 37.4386 23.8536C39.4439 24.4976 40.8298 25.611 41.9065 26.9327C42.1748 27.2619 42.3333 27.6544 42.4311 28.0324C42.6291 28.7963 42.7691 29.5687 42.8955 30.3406C42.9515 30.6832 42.7543 30.9936 42.3785 31.3342C39.9965 31.7806 37.5521 32.3451 34.9832 32.3844C34.8841 32.3073 34.8256 32.2692 34.7804 32.2243C34.7372 32.1814 34.6883 32.1339 34.676 32.0842C34.5152 31.4344 34.3608 30.784 34.2055 30.1372C34.7147 29.6906 35.4778 29.7375 36.0941 29.5671C36.435 29.6318 36.6516 29.7815 36.7997 29.9852C36.9415 30.1804 37.0533 30.3895 37.2272 30.5684C37.2809 30.6236 37.4949 30.5998 37.709 30.6188C37.7726 30.3508 37.8792 30.082 37.8924 29.8108C37.9249 29.1488 37.7974 28.4911 37.963 27.8217C38.1094 27.2294 37.6956 26.734 36.9771 26.4131C36.5176 26.2079 36.0377 25.9839 35.5231 25.8912C34.314 25.6735 33.0859 25.5087 31.8171 25.6109C28.4803 25.8799 25.1281 25.9976 21.7665 26.096C21.0484 26.2298 20.6764 26.6995 20.0742 26.9941C19.9791 27.1857 19.876 27.3934 19.7953 27.5558C19.9916 28.524 20.7694 29.1023 21.906 29.4686C22.9805 29.8148 24.1048 30.0307 25.284 30.1036C26.5286 30.1806 27.7718 30.2675 29.0145 30.359C29.24 30.3757 29.4595 30.4352 29.6059 30.4613C29.9663 30.6316 29.9936 30.866 30.0879 31.073C30.1842 31.2842 30.2559 31.5012 30.3438 31.7145C30.4291 31.9218 30.5213 32.1276 30.6016 32.3133C30.4585 32.4246 30.3753 32.5486 30.252 32.5741C29.8815 32.6507 29.4983 32.7189 29.1151 32.7371C26.0735 32.8826 23.0283 32.9102 19.9828 32.819C18.4108 32.7719 16.8923 32.5203 15.4266 32.1148C15.2119 32.0554 15.0179 31.9583 14.8991 31.9119C14.4426 31.6413 14.2729 31.3234 14.1567 31.0039C14.0613 30.7411 13.9863 30.447 14.0536 30.1866C14.3779 28.929 14.8708 27.6996 15.3972 26.4778C15.5873 26.0363 15.9844 25.6892 16.5085 25.4325C17.0215 25.1812 17.5693 24.9652 18.1083 24.7416C18.9174 24.4059 19.7396 24.0858 20.542 23.7424C21.2299 23.448 21.7179 23.0208 22.0597 22.5042C22.5503 21.7628 22.8489 21.0001 22.8489 20.168C22.8245 20.2281 22.8047 20.2887 22.7777 20.3486C22.6058 20.7316 22.3111 21.0506 21.905 21.3202C21.1432 21.8257 20.2591 22.1668 19.2164 22.2595C18.3544 22.3361 17.5382 22.52 16.744 22.7555C15.6261 23.0868 14.7629 23.6287 14.1602 24.382C13.4548 25.2636 13.0272 26.206 12.8487 27.2124C12.5943 28.6472 12.3781 30.0826 12.3666 31.5318C12.365 31.7364 12.3537 31.941 12.3476 32.1456C12.3993 32.16 12.4557 32.1705 12.503 32.1896C13.8676 32.7392 15.2792 33.2034 16.8033 33.4876C17.2541 33.5717 17.6825 33.7164 18.1235 33.8286C19.74 34.2398 21.3435 34.6813 23.0555 34.8658C24.1133 34.9799 24.9246 35.3895 25.5974 35.9658C26.3603 36.6192 26.8886 37.3493 27.1377 38.1839C27.5617 39.6045 27.7775 41.0368 27.6393 42.4894C27.5127 43.82 27.3276 45.1485 27.2479 46.4803C27.0983 48.9791 26.9581 51.4805 27.2002 53.9801C27.2967 54.9771 27.4838 55.9696 27.6417 56.9632C27.7228 57.4733 27.9879 57.9332 28.5026 58.301C28.5945 58.3666 28.7794 58.3663 28.9214 58.3964C29.3819 58.3647 29.4449 58.0057 29.7791 57.8701C30.0652 57.7887 30.3515 57.7078 30.6745 57.6165C31.4263 56.5631 31.8033 55.4426 31.8759 54.2628C31.9886 52.4317 32.1702 50.603 32.1977 48.7688C32.2171 47.4917 32.1952 46.2112 32.5616 44.9486C32.6399 44.6784 32.6339 44.3957 32.6654 44.1186C32.7794 43.1219 32.9296 42.1265 32.9992 41.1282C33.1459 39.0184 33.2414 36.9075 32.8873 34.8008C32.832 34.4713 32.8272 34.1358 32.835 33.8036C32.8373 33.7053 32.962 33.6084 33.0339 33.5063C33.6016 33.3079 34.2206 33.2546 34.8444 33.2363C34.9804 33.2322 35.1273 33.3037 35.2569 33.3558C35.3144 33.379 35.3415 33.4406 35.3824 33.4848C34.9954 35.1236 34.9812 35.1279 35.2832 36.9475C35.3662 37.4483 35.3686 37.9356 35.3072 38.4388C35.1991 39.3233 35.183 40.2142 35.153 41.1028C35.1337 41.6691 35.3788 42.2003 35.6947 42.7118C35.7859 42.8596 35.9577 42.9821 36.1136 43.137C36.3861 42.9488 36.613 42.8582 36.6962 42.7228C37.0097 42.2136 37.2596 41.6868 37.3486 41.1282C37.4012 40.7973 37.4681 40.4677 37.5335 40.1119C37.8115 40.0311 38.1055 39.9809 38.34 39.868C38.611 39.7376 38.6544 39.501 38.7063 39.2793C39.1703 37.3031 39.5202 35.3203 39.4492 33.31C39.4436 33.1497 39.5209 32.9879 39.5669 32.796C40.2401 32.3898 41.1187 32.3398 41.8024 32.1316C42.2658 32.1961 42.4608 32.3516 42.4552 32.6019C42.4387 33.3238 42.465 34.0498 42.3662 34.7665C42.0916 36.7612 42.1801 38.7648 42.0182 40.7618C41.9915 41.0914 42.0782 41.4256 42.11 41.7578C42.126 41.9238 42.1585 42.0909 42.1438 42.2556C42.1189 42.5353 42.0389 42.8146 41.7609 43.0252C41.49 43.2304 41.1554 43.3787 40.6885 43.3699C39.8078 43.3533 39.1332 42.654 38.1772 42.826C37.6723 43.1161 38.0073 43.5022 37.7988 43.7966C37.6796 43.8573 37.5664 43.9286 37.4369 43.9783C37.0844 44.1137 37.0817 44.1101 37.0389 44.4857C38.4772 45.5418 40.0402 46.5562 40.8 48.0208C40.5523 48.3368 40.3262 48.6266 40.0984 48.9157C38.7325 50.6501 38.5598 52.5041 39.0425 54.415C39.2923 55.4047 39.7756 56.3444 40.3969 57.247C40.5984 57.5398 40.8782 57.8101 40.9013 58.193C40.5948 58.1567 40.3 58.0884 40.0084 58.0949C39.5427 58.1053 39.0735 58.1446 38.6161 58.2088C37.6207 58.3486 36.6329 58.5155 35.6395 58.6625C35.4228 58.6946 35.1952 58.6903 35.0349 58.6991C34.8198 58.61 34.8203 58.5181 34.837 58.3878C34.8953 57.9307 35.2074 57.5416 35.46 57.1371C35.8473 56.5164 36.0313 55.8698 36.0064 55.1913C35.9351 53.2477 36.0024 51.3007 35.6539 49.3643C35.545 48.7596 35.563 48.1438 35.4987 47.5344C35.4578 47.1479 35.3968 46.7605 35.2956 46.38C35.2535 46.2222 35.0745 46.0886 34.7921 46.0842C34.724 46.1609 34.5884 46.2468 34.5717 46.3431C34.4091 47.2798 34.2438 48.2168 34.1229 49.1566C33.8451 51.3145 33.5917 53.474 33.3074 55.8062C33.5036 56.3977 33.754 57.1522 34.0163 57.943C33.8607 58.0311 33.7084 58.1738 33.5114 58.2201C32.1739 58.5349 30.7925 58.7297 29.3946 58.8179C25.4728 59.0652 21.5957 58.8308 17.7675 58.1808C16.8565 58.0261 15.9684 57.826 15.2242 57.5725C15.0739 57.3943 14.9376 57.3043 14.9248 57.2064C14.8286 56.4618 14.45 55.8018 13.7657 55.2399C12.6999 54.3643 12.2455 53.3257 12.0246 52.2007C11.6246 50.1638 11.3106 48.1216 11.1224 46.0694C11.1124 45.9605 11.056 45.8539 11.0215 45.7466C10.9443 45.7542 10.8903 45.7749 10.8451 45.8008C10.8833 45.8371 10.915 45.8761 10.922 45.9201C10.9662 46.1955 11.0315 46.4722 11.0311 46.7484C11.0277 48.9725 11.0253 51.1968 10.9847 53.4207C10.9779 53.7978 10.7896 54.1732 10.6359 54.727C11.0905 55.1549 11.0498 55.8275 11.1123 56.4933C11.1356 56.7424 11.1744 56.9908 11.2123 57.2392C11.2562 57.2363 11.3021 57.2401 11.3517 57.2577C12.1875 57.5529 13.0057 57.8745 13.8521 58.1528C16.0695 58.882 18.4297 59.2493 20.8378 59.4517C23.2381 59.6534 25.6438 59.8437 28.071 59.7412C28.2971 59.7315 28.5278 59.777 28.7197 59.7936C28.8614 59.8906 29.0119 59.9506 29.07 60.0408C29.3292 60.4437 29.5621 60.8551 29.7851 61.2307C29.8251 61.5814 29.5613 61.7844 29.2513 61.957C28.7547 62.2333 28.1913 62.4233 27.5854 62.5453C26.4617 62.7717 25.3454 63.0226 24.2074 63.2039C23.7117 63.2828 23.386 63.4889 22.9283 63.8025C21.4847 63.6863 20.1675 63.5946 18.8571 63.4667C18.3992 63.4221 17.9553 63.2954 17.5112 63.1927C17.2903 63.1416 17.086 63.0547 16.869 62.9934C16.6536 62.9325 16.4318 62.8833 16.2332 62.8341C15.9846 62.9212 15.7574 63.001 15.5348 63.079C16.44 63.6076 17.4201 64.0465 18.5014 64.3848C21.0472 65.1809 23.7376 65.4565 26.4786 65.5831C28.9893 65.699 31.4691 65.4307 33.9571 65.2816C35.6961 65.1773 37.2212 64.7405 38.3541 63.7752C37.7326 62.9867 37.6214 61.9179 38.4537 61.0198C39.1542 60.2637 40.0321 59.6434 41.1517 59.2092C41.3481 59.1331 41.5953 59.123 41.7914 59.0874C41.9651 59.1453 42.1326 59.1712 42.2413 59.2423C42.8722 59.6556 43.4891 60.0795 43.9868 60.4159C44.3185 60.796 44.0561 61.0596 44.0521 61.3277C44.0406 62.104 44.4868 62.7496 45.3449 63.1992C46.9432 64.0365 48.6779 64.648 50.7482 64.5575C50.9815 64.5472 51.2152 64.5378 51.4666 64.5271C52.2108 64.6523 52.9803 64.7536 53.7256 64.9125C56.6061 65.5267 59.5572 65.6355 62.5362 65.5848C64.1749 65.5568 65.8144 65.5176 67.453 65.5292C69.7422 65.5453 71.9603 65.3059 74.1585 64.7191C74.5309 64.494 74.9412 64.2461 75.2804 64.0413C75.9806 63.9521 76.3456 64.3815 76.9074 64.3772C76.9805 64.3629 77.0749 64.3646 77.1233 64.3318C77.402 64.1431 77.6701 63.9463 78.0224 63.6946C78.1292 63.6603 78.3325 63.5617 78.5551 63.5296C79.4761 63.3971 80.381 63.2324 81.2399 62.9556C81.7418 62.7938 82.2144 62.6015 82.5649 62.2881C82.8783 62.0082 83.0086 61.7089 82.6946 61.3032ZM25.5433 29.2764C25.0839 29.2207 24.6186 29.1864 24.163 29.1178C23.3993 29.0029 22.6744 28.814 22.0092 28.5119C21.4318 28.2494 21.2625 27.8481 21.5897 27.366C21.6892 27.2195 21.8559 27.0962 22.0705 26.8846C22.432 26.8526 22.6612 26.8091 22.8875 26.8157C25.5333 26.8929 28.1657 26.8016 30.7923 26.5583C31.6359 26.4802 32.4965 26.4808 33.3497 26.4747C34.2174 26.4684 35.0476 26.6312 35.8209 26.8989C36.1588 27.0158 36.4482 27.2155 36.7284 27.4015C36.9676 27.5603 36.9637 27.9961 36.7372 28.1703C36.5281 28.331 36.3215 28.5186 36.0565 28.612C35.5041 28.8067 34.9319 29.0038 34.3361 29.0998C31.4257 29.5691 28.4909 29.6337 25.5433 29.2764ZM70.0748 46.6757V47.0098C69.4758 47.2353 68.8573 47.4529 68.2604 47.6971C67.7269 47.9153 67.217 48.1628 66.7759 48.3618C66.3635 48.4488 66.0813 48.3682 65.8072 48.2632C64.713 47.8443 63.5184 47.617 62.3522 47.3334C62.1461 47.2833 62.0321 47.1262 62.082 46.9472C65.3428 46.3736 67.9171 46.284 70.0748 46.6757ZM60.992 41.8075C61.3064 41.6887 61.5349 41.7504 61.6367 41.8879C61.8152 42.1292 61.9442 42.3922 62.0573 42.6542C62.4869 43.6487 62.847 44.6562 63.177 45.6282C62.5963 46.1676 62.4962 46.1871 61.598 45.9736C61.5225 45.8804 61.4005 45.7921 61.3795 45.693C61.2299 44.9868 61.0795 44.2799 60.9726 43.5699C60.8824 42.9721 60.8311 42.3693 60.992 41.8075ZM56.3057 42.5349C56.5116 42.6818 56.7444 42.7689 56.7843 42.8886C57.2274 44.2147 57.6423 45.5456 57.6493 46.8551C57.218 47.3324 56.6908 47.4827 56.0884 47.4394C55.7087 47.1955 55.7026 46.9161 55.6981 46.6466C55.675 45.2834 55.5773 43.9134 56.3057 42.5349ZM39.2466 45.1167C39.2037 44.3954 39.2 44.3951 39.4964 43.95C40.2592 43.9904 41.0165 44.0306 41.9741 44.0814C42.0652 45.1 41.6582 45.9883 41.728 46.9156C41.4042 46.886 41.2138 46.9093 41.153 46.8567C40.4706 46.2685 39.8074 45.6689 39.2466 45.1167ZM72.9901 61.2535C72.4827 61.8758 72.0142 62.5149 71.1986 62.9792C69.2627 64.0811 67.1099 64.7528 64.6012 64.921C62.1008 65.0886 59.8129 64.9265 57.8528 64.6719C55.7024 64.3924 53.5927 63.984 51.6557 63.222C51.4512 63.1416 51.2379 63.0692 51.0196 63.0107C48.0921 62.2266 45.8198 60.7956 43.6827 59.2359C43.4174 59.0422 43.247 58.7822 43.035 58.5518C42.9513 58.461 42.9056 58.3274 42.7893 58.2811C41.6708 57.8363 41.2859 57.0197 40.8381 56.2652C40.0105 54.8703 39.548 53.4129 39.7519 51.8809C39.8709 50.9873 40.1523 50.1274 40.8496 49.3638C40.8943 49.3149 41.1047 49.3425 41.3084 49.3304C41.313 49.7146 41.2922 50.096 41.3293 50.4745C41.3671 50.8612 41.4556 51.2457 41.5328 51.6301C41.6098 52.014 41.6904 52.3979 41.7904 52.7789C41.822 52.8994 41.9665 52.9398 42.1701 52.9063C42.2461 51.9867 42.3071 51.055 42.5654 50.1393C42.5795 50.0895 42.6516 50.0481 42.7261 49.9732C42.8932 50.0803 43.0883 50.1679 43.2127 50.2916C43.6648 50.7411 43.954 51.2707 44.549 51.6512C44.6964 51.7454 44.819 51.7417 45.1712 51.5657C44.4838 50.5204 43.7918 49.4681 43.1251 48.4544C43.2318 48.2234 43.4233 48.1464 43.6647 48.1628C43.8934 48.1785 44.1275 48.2108 44.3412 48.2692C45.2426 48.5151 45.9654 48.9401 46.5089 49.4961C46.9977 49.996 47.4322 50.5247 47.8537 51.0556C48.4674 51.8288 49.0517 52.6138 49.6374 53.398C49.7047 53.4879 49.7013 53.6045 49.7298 53.7054C49.615 53.935 49.3371 54.0378 49.0769 54.1616C47.9708 54.6875 46.9264 55.2674 46.0658 55.996C45.9949 56.0561 46.0436 56.1878 46.0359 56.301C46.6433 56.3262 46.9679 55.9764 47.3977 55.7797C47.9221 55.5397 48.4114 55.261 48.9335 55.0183C49.3857 54.8081 49.8208 54.5613 50.4554 54.5195C51.1398 54.6609 51.534 55.0453 51.8013 55.5036C51.7315 55.6284 51.7088 55.7474 51.6162 55.8228C50.8979 56.408 50.1449 56.9723 49.4486 57.5701C49.1572 57.8205 48.9594 58.1307 48.7601 58.4276C48.7143 58.4958 48.8373 58.6215 48.9049 58.7695C50.2915 58.0276 51.2699 56.988 52.6409 56.3123C52.8571 56.3272 53.05 56.2987 53.1532 56.3544C54.3343 56.9916 55.5686 57.571 56.8353 58.1172C56.8955 58.1431 56.9259 58.2039 57.0139 58.2925C56.9953 58.4098 57.0138 58.5784 56.9383 58.7219C56.583 59.3975 56.1898 60.0631 55.8351 60.7388C55.6689 61.0555 55.695 61.229 55.8343 61.8737C56.285 61.7044 56.3407 61.357 56.5379 61.0782C56.748 60.7813 56.9101 60.4673 57.103 60.1639C57.2637 59.9111 57.4206 59.6556 57.6121 59.4144C57.839 59.1286 57.9812 58.7962 58.4048 58.6128C58.4866 58.5989 58.5685 58.5652 58.636 58.5763C60.1587 58.8253 61.7162 58.8812 63.2616 59.0026C63.5839 59.0278 63.8515 59.1255 63.9852 59.3563C63.7236 60.4333 62.9495 61.4584 63.2752 62.6137C63.4423 62.603 63.6414 62.6281 63.6847 62.5807C63.8516 62.3986 64.0043 62.2014 64.098 61.995C64.4098 61.3088 64.6923 60.6157 64.9888 59.9259C65.1037 59.6586 65.2408 59.3989 65.7009 59.1521C67.0331 59.0133 68.4954 59.0758 69.9443 59.33C70.9997 59.5151 72.0854 59.6589 72.8287 60.212C73.1418 60.5812 72.9939 60.9141 72.9901 61.2535ZM76.6744 63.3694C76.5662 63.3694 76.4834 63.386 76.4226 63.367C75.4293 63.0572 74.4386 62.7432 73.4859 62.4422C73.4859 62.342 73.4627 62.2851 73.4911 62.2649C73.5419 62.2289 73.6278 62.1902 73.692 62.1955C74.5799 62.2688 75.311 61.7814 76.1915 61.8447C76.42 61.8612 76.6582 61.8786 76.8661 61.9401C76.9873 61.976 77.1128 62.0917 77.1404 62.1859C77.2738 62.6389 77.2209 63.0632 76.6744 63.3694ZM78.4429 54.6909C77.7682 55.3785 76.991 56.0016 76.0851 56.5334C75.6695 56.7774 75.1943 56.9918 74.6994 57.1409C73.4731 57.5103 72.1936 57.7758 70.8552 57.8179C69.5309 57.8596 68.2036 57.8654 66.8778 57.8633C65.9417 57.8618 65.006 57.8158 64.0698 57.7986C61.5474 57.7522 59.1356 57.3362 56.9001 56.7746C55.0519 55.7757 53.8738 54.5601 53.1435 53.1126C52.6555 52.1454 52.6011 51.1652 52.8996 50.1758C54.26 49.0046 56.0614 48.3564 57.9688 47.8343C58.3221 47.7376 58.7341 47.7171 59.119 47.7173C60.0565 47.7178 60.9868 47.7715 61.8924 47.9786C63.0738 48.249 64.2963 48.4445 65.2877 48.9457C65.2877 49.1167 65.3497 49.2572 65.2773 49.3242C64.8978 49.675 64.4861 50.0082 64.0823 50.3455C63.2713 51.023 62.4849 51.7135 61.9371 52.5211C61.8375 52.6679 61.7752 52.8421 62.0375 52.9585C65.2443 50.3388 65.2443 50.3388 66.6272 49.6474C66.8128 49.6995 67.053 49.7289 67.2259 49.8218C68.2308 50.3618 69.0469 51.0339 69.8126 51.7396C70.2892 52.1789 70.7631 52.6203 71.2635 53.0458C71.3884 53.152 71.611 53.2002 71.7886 53.275C71.8402 53.2079 71.8919 53.1408 71.9437 53.0738C71.5402 52.6015 71.1541 52.1214 70.7289 51.6595C70.3017 51.1954 69.8397 50.7475 69.3857 50.2962C68.936 49.8492 68.1924 49.5771 67.8931 49.0785C67.9447 48.7958 68.1778 48.6503 68.4347 48.5289C69.9013 47.8359 70.7962 47.5944 73.2651 47.2182C74.4006 47.3486 75.378 47.8018 76.3243 48.2972C77.471 48.8975 78.4196 49.6239 79.1049 50.5461C79.1976 51.0207 79.3037 51.5138 79.3884 52.0085C79.5556 52.9872 79.2385 53.8803 78.4429 54.6909Z" fill="var(--fill-0, black)"/>
<path id="Vector_13" d="M57.1492 36.5053C57.3618 35.7514 57.3926 34.9397 57.4028 34.1186C57.1893 33.4062 56.9637 32.6958 56.6901 31.9923C55.9398 30.0643 55.2635 28.1254 54.8584 26.1398C54.4404 24.0909 54.4148 22.0405 54.6474 19.986C54.7289 19.2666 54.9897 18.5642 55.3891 17.8924C55.4538 17.7835 55.5351 17.6888 55.6153 17.5931C55.4659 17.5473 55.3029 17.5259 55.1193 17.555C54.431 17.8631 54.223 18.0134 54.0335 18.3615C53.6645 19.0396 53.4509 19.7463 53.3792 20.4678C53.2305 21.9662 53.2174 23.4692 53.4616 24.9611C53.8317 27.2241 54.4414 29.4563 55.3033 31.6544C55.7221 32.7222 56.0482 33.8091 56.3907 34.8916C56.6415 35.6845 56.7018 36.4924 56.6916 37.3015C56.9216 37.2937 57.1542 37.2948 57.3721 37.2646C57.3098 37.071 57.2401 36.8262 57.1492 36.5053Z" fill="var(--fill-0, black)"/>
<path id="Vector_14" d="M12.2523 34.3663C12.2865 33.6261 12.326 32.8858 12.3481 32.1455C12.1855 32.1003 12.0091 32.0669 11.8131 32.0201C11.7232 32.1885 11.5915 32.3328 11.5757 32.4834C11.5234 32.9821 11.5419 33.4847 11.4792 33.9824C11.3749 34.8119 11.253 35.6411 11.0906 36.4656C11.066 36.5907 11.0209 36.7106 10.9624 36.8262C11.202 36.7422 11.4708 36.6131 11.8111 36.429C12.0661 35.7984 12.219 35.0896 12.2523 34.3663Z" fill="var(--fill-0, black)"/>
<path id="Vector_15" d="M23.183 7.19075C23.1541 7.01195 22.7217 6.81451 22.4938 6.52972C22.1831 6.1415 22.0804 5.75387 22.2083 5.37132C22.0029 5.4016 21.8008 5.43142 21.5997 5.46118C21.4703 5.61648 21.3544 5.75539 21.2609 5.86757C21.3297 6.46454 22.23 6.61668 22.4298 7.11169C22.4509 7.22136 22.5031 7.33335 22.4884 7.44059C22.2365 9.27247 22.4409 11.1068 22.4326 12.9396C22.429 13.7165 22.4766 14.4958 22.5638 15.2704C22.7448 16.8773 22.8202 18.4858 22.8542 20.0973C22.8548 20.1214 22.8491 20.1441 22.8491 20.1681C23.0633 19.6384 23.1814 19.1014 23.1749 18.5454C23.1578 17.0995 23.1734 9.65075 23.183 7.19075Z" fill="var(--fill-0, black)"/>
<path id="Vector_16" d="M23.1264 4.09395C22.7766 3.73904 22.3837 3.39111 22.0706 3.01014C21.6469 2.49466 21.6648 1.94989 22.0366 1.41447C22.0565 1.3859 22.0809 1.35989 22.102 1.33198C21.9398 1.38636 21.7775 1.44107 21.6211 1.51592C20.9317 1.84574 20.7396 2.52857 21.2309 2.97722C21.3745 3.10849 21.5173 3.24233 21.6823 3.35938C22.0137 3.5948 22.3631 3.81745 22.6991 4.04971C22.8201 4.13345 22.9436 4.21831 23.0511 4.30975C23.0641 4.2956 23.0787 4.2821 23.0915 4.26788C23.129 4.22634 23.1147 4.16097 23.1264 4.09395Z" fill="var(--fill-0, black)"/>
<path id="Vector_17" d="M6.307 38.5086C6.57608 38.5507 6.74332 38.552 6.87467 38.6014C8.22536 39.1092 8.88202 39.9659 9.16673 40.988C9.32528 41.5572 9.14148 42.0917 8.6652 42.5688C7.98717 43.2481 7.02832 43.6065 5.89445 43.6631C5.00321 43.7076 4.2251 43.4183 3.57529 42.9871C3.04129 42.6326 2.7402 42.192 2.70616 41.6645C2.63105 40.4997 3.28614 39.6154 4.721 39.0472C5.25981 38.8337 5.83516 38.6672 6.307 38.5086ZM5.7533 42.7589C6.60781 42.7088 7.27215 42.4682 7.66721 41.9407C8.07329 41.3987 7.82141 40.8794 7.48517 40.3736C7.41987 40.2753 7.34541 40.1777 7.25392 40.0911C7.06273 39.9101 6.7991 39.8041 6.48913 39.7577C6.01526 39.6869 5.56931 39.7482 5.16712 39.9325C4.70139 40.1459 4.35988 40.4459 4.18496 40.8172C3.85187 41.5243 4.00884 42.2345 5.1329 42.6098C5.33843 42.6785 5.56543 42.7146 5.7533 42.7589Z" fill="var(--fill-0, black)"/>
</g>
</svg>
