<svg preserveAspectRatio="none" width="100%" height="100%" overflow="visible" style="display: block;" viewBox="0 0 40.4967 58.0772" fill="none" xmlns="http://www.w3.org/2000/svg">
<g id="Group">
<path id="Vector" d="M26.2127 1.33756C13.2224 -2.81742 0.840111 6.63334 0.34772 16.9853C0.0387186 23.4437 4.55746 29.1568 8.37539 34.5134C10.963 38.1461 13.0618 41.8021 14.4968 45.8523C15.2415 47.9615 15.7041 50.1523 16.2662 52.3164C15.8514 53.7108 15.6299 55.142 15.6678 56.6208C15.6829 57.2808 17.042 57.4015 17.2529 56.7725C17.3218 56.5637 17.4048 56.3666 17.4779 56.1616C17.6678 56.6353 17.8716 57.1032 18.1012 57.5639C18.4948 58.361 20.0991 58.1935 20.1628 57.3125C20.3075 55.295 20.1108 53.227 19.6924 51.1639C21.5554 47.7023 23.9542 44.5374 26.8773 41.3226C30.9195 36.8781 35.2563 32.6106 38.1643 27.5668C43.8294 17.7347 38.9188 5.40438 26.2127 1.33756ZM18.5972 22.1742C15.6883 21.897 13.6451 19.462 14.0343 16.7355C14.4228 14.0117 17.096 12.0266 20.0048 12.3046C22.9164 12.5834 24.9604 15.0168 24.5704 17.7435C24.1828 20.4679 21.5087 22.4522 18.5972 22.1742Z" fill="var(--fill-0, #F04E23)"/>
<g id="Group_2">
<path id="Vector_2" d="M25.8819 1.0025C12.8906 -3.15236 0.50652 6.29839 0.0149241 16.6487C-0.293065 23.1064 4.22567 28.8225 8.04078 34.1768C10.6294 37.8089 12.7299 41.4655 14.164 45.5151C14.9116 47.625 15.3705 49.8159 15.9344 51.9807C15.5188 53.3743 15.2982 54.8063 15.3353 56.2851C15.3502 56.9443 16.7086 57.0664 16.9194 56.436C16.9908 56.2287 17.0738 56.0302 17.1462 55.825C17.3333 56.2987 17.5398 56.7652 17.7684 57.2288C18.1628 58.0245 19.7666 57.8592 19.8308 56.9775C19.9756 54.9585 19.7781 52.8911 19.3597 50.8268C21.2227 47.365 23.6206 44.2016 26.5446 40.9868C30.5884 36.5424 34.9243 32.2747 37.8298 27.231C43.4993 17.3998 38.587 5.0679 25.8819 1.0025ZM30.652 32.5911C26.8702 37.0839 21.5925 41.74 18.3219 46.9116C17.5831 44.6139 16.6573 42.3667 15.7041 40.2482C12.9647 34.1494 7.80525 28.9908 4.83377 22.9569C-0.729847 11.6547 11.9691 -0.581685 26.3981 4.54292C33.027 6.89763 37.1979 12.9958 37.2907 18.7442C37.3708 23.8754 34.0931 28.5062 30.652 32.5911Z" fill="var(--fill-0, black)"/>
<path id="Vector_3" d="M17.644 10.9738C16.9979 11.2287 16.8072 11.758 16.9979 12.2101C16.058 12.4346 15.164 12.8303 14.4049 13.3647C11.9268 15.1121 11.9559 17.9225 13.3891 20.1335C15.3104 23.0897 19.3314 24.6827 22.9463 22.7215C25.6928 21.2296 26.9867 18.0437 26.6282 15.463C26.1765 12.1993 21.4954 9.45748 17.644 10.9738ZM21.7267 19.8158C20.6085 20.9726 19.1708 21.0881 17.8011 20.1811C16.3547 19.2223 15.2028 17.3203 16.2205 15.879C17.3087 14.3352 19.8822 14.3091 21.7813 14.2499C22.3074 14.5712 22.7434 15.011 23.0222 15.6754C23.5995 17.056 22.7629 18.7421 21.7267 19.8158Z" fill="var(--fill-0, black)"/>
</g>
</g>
</svg>
